<svg width="181" height="126" viewBox="0 0 181 126" fill="none" xmlns="http://www.w3.org/2000/svg">
<path d="M24.81 72.9498C24.13 72.1798 23.27 71.4398 22.22 70.8298C20.45 69.7898 18.13 69.0898 15.2 69.0898C11 69.0898 7.19 70.7798 4.44 73.6098C1.69 76.4398 0 80.4198 0 84.9798C0 89.5398 1.69 93.5198 4.44 96.3498C7.19 99.1798 11 100.87 15.2 100.87C18.13 100.87 20.45 100.17 22.22 99.1298C23.27 98.5098 24.13 97.7798 24.81 97.0098V100.01H30.35V69.9498H24.81V72.9498ZM15.25 95.6198C12.45 95.6198 10.06 94.4798 8.34 92.5898C6.62 90.6998 5.59 88.0398 5.59 84.9798C5.59 81.9198 6.63 79.2598 8.34 77.3698C10.06 75.4798 12.45 74.3498 15.25 74.3398C18.14 74.3398 20.64 75.4798 22.44 77.3798C24.23 79.2798 25.32 81.9298 25.32 84.9898C25.32 88.0398 24.23 90.6998 22.44 92.5998C20.64 94.4798 18.14 95.6198 15.25 95.6198Z" fill="#F37022"/>
<path d="M64.5292 69.9502H63.2792H58.1692L50.9292 79.7102L43.6392 69.9502H37.3392L47.8692 84.0702L36.4492 100.02H42.6692L50.9892 88.4602L59.1892 100.02H65.4692L54.0492 84.0202L64.5292 69.9502Z" fill="#F37022"/>
<path d="M90.5383 70.2698C88.8383 69.5098 86.9183 69.0898 84.8283 69.0898C80.5283 69.0898 76.7383 70.6698 74.0383 73.4798C71.3383 76.2898 69.7383 80.2998 69.7383 85.0998V85.3298C69.7383 89.9498 71.2783 93.8298 73.9683 96.5398C76.6583 99.2498 80.4883 100.76 84.9383 100.76C87.0783 100.76 89.1783 100.48 91.2183 99.6698C93.2583 98.8598 95.2183 97.5298 97.0683 95.4598L97.4683 95.0198L93.7283 91.3598L93.2883 91.8198C92.1083 93.0498 90.9983 93.9998 89.6983 94.6398C88.4083 95.2798 86.9183 95.6298 84.9283 95.6298C83.4783 95.6298 82.1783 95.3898 81.0283 94.9398C79.3083 94.2698 77.9383 93.1298 76.9583 91.6098C76.0783 90.2298 75.5183 88.5198 75.3583 86.5298H98.6083L98.6483 85.9498C98.7083 85.0598 98.7083 84.0898 98.7083 84.0798C98.7083 79.9698 97.3483 76.2298 94.9183 73.5098C93.7183 72.1298 92.2383 71.0298 90.5383 70.2698ZM78.4583 76.6598C80.1083 75.2298 82.3483 74.3398 84.8283 74.3398C87.0583 74.3398 89.0783 75.2298 90.5383 76.6598C91.8583 77.9498 92.7083 79.6598 92.8683 81.5598H75.6883C75.9783 79.6598 76.9783 77.9498 78.4583 76.6598Z" fill="black"/>
<path d="M126.731 71.3302C124.931 70.1402 122.671 69.4902 120.061 69.4902C117.731 69.4902 115.681 70.0802 114.021 71.0802C113.031 71.6802 112.181 72.4302 111.481 73.2902V69.9502H105.891V100.02H111.481V82.1802C111.481 79.9202 112.251 78.0802 113.551 76.7902C114.851 75.5002 116.711 74.7402 118.971 74.7402C120.061 74.7402 121.031 74.9202 121.871 75.2502C123.131 75.7402 124.101 76.5602 124.781 77.6802C125.461 78.7902 125.841 80.2202 125.841 81.9002V100.02H131.381V80.9802C131.381 79.3002 131.121 77.7402 130.611 76.3402C129.851 74.2502 128.521 72.5202 126.731 71.3302Z" fill="black"/>
<path d="M139.73 100.02H140.36H145.33V69.9502H139.73V100.02Z" fill="black"/>
<path d="M169.088 84.0202L179.568 69.9502H173.208L165.968 79.7102L158.678 69.9502H152.378L162.908 84.0702L151.488 100.02H157.718L166.028 88.4602L174.228 100.02H180.508L169.088 84.0202Z" fill="black"/>
<path d="M25.4303 54.93C25.0303 54.25 24.7003 53.53 24.4503 52.8C23.6803 50.56 23.5803 48.14 24.1403 45.87C24.7103 43.59 25.9303 41.47 27.8003 39.78L64.5203 6.72V0L24.4703 36.07C22.7103 37.65 21.3503 39.52 20.4103 41.54C18.9903 44.57 18.5003 47.94 18.9603 51.21C19.4203 54.48 20.8303 57.67 23.2003 60.3L24.8703 62.16L64.5303 26.45V19.73L25.4303 54.93Z" fill="#F37022"/>
<path d="M39.7422 62.1501H47.2022L64.5322 46.5501V39.8301L39.7422 62.1501Z" fill="#F37022"/>
<path d="M2.62109 125.62V112.45H4.40109V125.61H2.62109V125.62Z" fill="black"/>
<path d="M16.0911 112.33C17.1611 112.33 18.1011 112.53 18.9111 112.94C19.7211 113.35 20.3611 113.97 20.8211 114.81C21.2811 115.65 21.5111 116.7 21.5111 117.97V125.62H19.7211V118.15C19.7211 116.76 19.3711 115.71 18.6811 115C17.9911 114.29 17.0111 113.93 15.7611 113.93C14.8211 113.93 14.0111 114.12 13.3211 114.49C12.6311 114.87 12.0911 115.41 11.7111 116.12C11.3311 116.83 11.1511 117.69 11.1511 118.69V125.61H9.37109V112.45H11.0711V116.06L10.7911 115.38C11.2111 114.43 11.8811 113.68 12.8011 113.14C13.7211 112.6 14.8211 112.33 16.0911 112.33Z" fill="black"/>
<path d="M33.0403 112.33C34.1103 112.33 35.0503 112.53 35.8603 112.94C36.6703 113.35 37.3103 113.97 37.7703 114.81C38.2303 115.65 38.4603 116.7 38.4603 117.97V125.62H36.6803V118.15C36.6803 116.76 36.3303 115.71 35.6403 115C34.9503 114.29 33.9703 113.93 32.7203 113.93C31.7803 113.93 30.9703 114.12 30.2803 114.49C29.5903 114.87 29.0503 115.41 28.6703 116.12C28.2903 116.83 28.1103 117.69 28.1103 118.69V125.61H26.3203V112.45H28.0203V116.06L27.7403 115.38C28.1603 114.43 28.8303 113.68 29.7503 113.14C30.6703 112.6 31.7703 112.33 33.0403 112.33Z" fill="black"/>
<path d="M48.6314 125.74C47.3614 125.74 46.2214 125.45 45.2114 124.88C44.2014 124.3 43.4014 123.51 42.8214 122.5C42.2314 121.49 41.9414 120.33 41.9414 119.03C41.9414 117.71 42.2314 116.55 42.8214 115.54C43.4014 114.54 44.2014 113.75 45.2014 113.18C46.2014 112.61 47.3514 112.33 48.6314 112.33C49.9314 112.33 51.0914 112.61 52.1014 113.18C53.1114 113.75 53.9014 114.53 54.4814 115.54C55.0614 116.54 55.3414 117.7 55.3414 119.03C55.3414 120.33 55.0514 121.49 54.4814 122.5C53.9014 123.51 53.1014 124.31 52.0914 124.88C51.0714 125.45 49.9214 125.74 48.6314 125.74ZM48.6314 124.16C49.5814 124.16 50.4314 123.95 51.1614 123.52C51.9014 123.09 52.4814 122.49 52.9014 121.71C53.3314 120.93 53.5414 120.03 53.5414 119.02C53.5414 117.98 53.3314 117.08 52.9014 116.31C52.4714 115.54 51.8914 114.94 51.1614 114.52C50.4214 114.09 49.5914 113.88 48.6514 113.88C47.7114 113.88 46.8814 114.09 46.1414 114.52C45.4014 114.95 44.8214 115.54 44.3914 116.31C43.9614 117.08 43.7414 117.98 43.7414 119.02C43.7414 120.04 43.9614 120.94 44.3914 121.71C44.8214 122.49 45.4114 123.09 46.1414 123.52C46.8914 123.95 47.7114 124.16 48.6314 124.16Z" fill="black"/>
<path d="M62.0002 125.62L56.1602 112.46H58.0202L63.3902 124.67H62.5102L67.9502 112.46H69.7002L63.8302 125.62H62.0002Z" fill="black"/>
<path d="M75.5114 125.74C74.5214 125.74 73.6714 125.58 72.9414 125.25C72.2114 124.92 71.6614 124.47 71.2714 123.9C70.8814 123.32 70.6914 122.66 70.6914 121.91C70.6914 121.23 70.8514 120.6 71.1814 120.04C71.5114 119.48 72.0414 119.03 72.7914 118.69C73.5314 118.35 74.5314 118.18 75.7914 118.18H80.3314V119.51H75.8414C74.5714 119.51 73.6914 119.74 73.1914 120.19C72.7014 120.64 72.4514 121.2 72.4514 121.87C72.4514 122.62 72.7414 123.22 73.3314 123.68C73.9114 124.13 74.7314 124.36 75.7914 124.36C76.7914 124.36 77.6614 124.13 78.3914 123.67C79.1214 123.21 79.6514 122.55 79.9814 121.68L80.3814 122.91C80.0514 123.78 79.4614 124.47 78.6414 124.99C77.8114 125.48 76.7614 125.74 75.5114 125.74ZM80.0514 125.62V122.71L79.9814 122.23V117.37C79.9814 116.25 79.6714 115.39 79.0414 114.79C78.4114 114.19 77.4814 113.89 76.2414 113.89C75.3914 113.89 74.5814 114.03 73.8114 114.32C73.0414 114.6 72.3914 114.98 71.8514 115.45L71.0514 114.12C71.7214 113.55 72.5214 113.11 73.4614 112.8C74.4014 112.49 75.3814 112.34 76.4214 112.34C78.1214 112.34 79.4414 112.76 80.3714 113.61C81.3014 114.45 81.7614 115.74 81.7614 117.46V125.63H80.0514V125.62Z" fill="black"/>
<path d="M84.543 113.93V112.45H92.693V113.93H84.543ZM90.763 125.74C89.523 125.74 88.573 125.41 87.903 124.74C87.233 124.07 86.903 123.13 86.903 121.91V109.55H88.683V121.81C88.683 122.58 88.883 123.17 89.273 123.59C89.663 124.01 90.233 124.22 90.963 124.22C91.753 124.22 92.403 123.99 92.923 123.54L93.553 124.82C93.203 125.14 92.783 125.37 92.283 125.52C91.783 125.67 91.273 125.74 90.763 125.74Z" fill="black"/>
<path d="M96.7695 125.62V112.45H98.5495V125.61H96.7695V125.62Z" fill="black"/>
<path d="M108.881 125.74C107.611 125.74 106.471 125.45 105.461 124.88C104.451 124.3 103.651 123.51 103.071 122.5C102.481 121.49 102.191 120.33 102.191 119.03C102.191 117.71 102.481 116.55 103.071 115.54C103.651 114.54 104.451 113.75 105.451 113.18C106.451 112.61 107.601 112.33 108.881 112.33C110.181 112.33 111.341 112.61 112.351 113.18C113.361 113.75 114.151 114.53 114.731 115.54C115.311 116.54 115.591 117.7 115.591 119.03C115.591 120.33 115.301 121.49 114.731 122.5C114.151 123.51 113.351 124.31 112.341 124.88C111.321 125.45 110.171 125.74 108.881 125.74ZM108.881 124.16C109.831 124.16 110.681 123.95 111.411 123.52C112.151 123.09 112.731 122.49 113.151 121.71C113.581 120.93 113.791 120.03 113.791 119.02C113.791 117.98 113.581 117.08 113.151 116.31C112.721 115.54 112.141 114.94 111.411 114.52C110.671 114.09 109.841 113.88 108.901 113.88C107.961 113.88 107.131 114.09 106.391 114.52C105.651 114.95 105.071 115.54 104.641 116.31C104.211 117.08 103.991 117.98 103.991 119.02C103.991 120.04 104.211 120.94 104.641 121.71C105.071 122.49 105.661 123.09 106.391 123.52C107.141 123.95 107.961 124.16 108.881 124.16Z" fill="black"/>
<path d="M125.96 112.33C127.03 112.33 127.97 112.53 128.78 112.94C129.59 113.35 130.23 113.97 130.69 114.81C131.15 115.65 131.38 116.7 131.38 117.97V125.62H129.6V118.15C129.6 116.76 129.25 115.71 128.56 115C127.87 114.29 126.89 113.93 125.64 113.93C124.7 113.93 123.89 114.12 123.2 114.49C122.51 114.87 121.97 115.41 121.59 116.12C121.21 116.83 121.03 117.69 121.03 118.69V125.61H119.25V112.45H120.95V116.06L120.67 115.38C121.09 114.43 121.76 113.68 122.68 113.14C123.59 112.6 124.69 112.33 125.96 112.33Z" fill="black"/>
</svg>
