<svg width="216" height="93" viewBox="0 0 216 93" fill="none" xmlns="http://www.w3.org/2000/svg">
<g clip-path="url(#clip0_1102_2001)">
<path d="M215.868 0.450195H-0.171875V92.7902H215.868V0.450195Z" fill="white"/>
<path d="M117.699 54.33C116.839 54.33 116.029 54.19 115.289 53.91C114.549 53.63 113.909 53.22 113.359 52.7C112.819 52.18 112.389 51.56 112.089 50.86C111.789 50.16 111.629 49.38 111.629 48.54C111.629 47.7 111.779 46.92 112.089 46.22C112.399 45.52 112.819 44.9 113.369 44.38C113.919 43.86 114.559 43.45 115.299 43.17C116.039 42.89 116.839 42.75 117.719 42.75C118.689 42.75 119.569 42.92 120.349 43.25C121.129 43.59 121.789 44.08 122.329 44.73L120.669 46.27C120.289 45.83 119.859 45.5 119.389 45.29C118.919 45.07 118.409 44.96 117.849 44.96C117.329 44.96 116.849 45.05 116.409 45.22C115.969 45.39 115.589 45.64 115.269 45.96C114.949 46.28 114.699 46.66 114.529 47.1C114.349 47.54 114.269 48.02 114.269 48.56C114.269 49.09 114.359 49.58 114.529 50.02C114.709 50.46 114.949 50.84 115.269 51.16C115.589 51.48 115.969 51.73 116.409 51.9C116.849 52.07 117.329 52.16 117.849 52.16C118.399 52.16 118.919 52.05 119.389 51.83C119.859 51.61 120.289 51.28 120.669 50.83L122.329 52.37C121.799 53.02 121.139 53.52 120.349 53.86C119.559 54.2 118.679 54.33 117.699 54.33Z" fill="black"/>
<path d="M129.117 45.3998C129.797 45.3998 130.407 45.5398 130.947 45.8098C131.487 46.0798 131.907 46.4998 132.217 47.0598C132.527 47.6198 132.677 48.3398 132.677 49.2098V54.1398H130.177V49.5998C130.177 48.9098 130.027 48.3898 129.717 48.0598C129.417 47.7298 128.987 47.5598 128.427 47.5598C128.037 47.5598 127.677 47.6398 127.367 47.8098C127.047 47.9798 126.807 48.2298 126.627 48.5698C126.447 48.9098 126.367 49.3498 126.367 49.8798V54.1398H123.867V42.2598H126.367V47.9098L125.807 47.1898C126.117 46.6098 126.557 46.1698 127.137 45.8598C127.727 45.5598 128.387 45.3998 129.117 45.3998Z" fill="black"/>
<path d="M139.277 54.2599C138.297 54.2599 137.437 54.0699 136.697 53.6799C135.957 53.2999 135.387 52.7699 134.977 52.0999C134.567 51.4299 134.367 50.6699 134.367 49.8199C134.367 48.9599 134.567 48.1899 134.967 47.5199C135.367 46.8499 135.917 46.3299 136.607 45.9499C137.297 45.5699 138.087 45.3799 138.957 45.3799C139.797 45.3799 140.557 45.5599 141.237 45.9199C141.917 46.2799 142.447 46.7899 142.847 47.4599C143.237 48.1299 143.437 48.9199 143.437 49.8499C143.437 49.9499 143.427 50.0599 143.417 50.1799C143.407 50.2999 143.397 50.4199 143.387 50.5199H136.397V49.0599H142.077L141.117 49.4899C141.117 49.0399 141.027 48.6499 140.847 48.3199C140.667 47.9899 140.417 47.7299 140.097 47.5399C139.777 47.3499 139.407 47.2599 138.977 47.2599C138.547 47.2599 138.177 47.3499 137.847 47.5399C137.517 47.7299 137.267 47.9899 137.087 48.3199C136.907 48.6599 136.817 49.0499 136.817 49.5099V49.8899C136.817 50.3599 136.917 50.7699 137.127 51.1299C137.337 51.4899 137.627 51.7599 138.007 51.9499C138.387 52.1399 138.827 52.2299 139.347 52.2299C139.807 52.2299 140.207 52.1599 140.557 52.0199C140.907 51.8799 141.217 51.6699 141.507 51.3999L142.837 52.8399C142.447 53.2899 141.947 53.6299 141.347 53.8699C140.747 54.1399 140.057 54.2599 139.277 54.2599Z" fill="black"/>
<path d="M149.269 54.2599C148.339 54.2599 147.519 54.0699 146.789 53.6899C146.059 53.3099 145.499 52.7899 145.089 52.1099C144.679 51.4399 144.469 50.6799 144.469 49.8199C144.469 48.9599 144.679 48.1899 145.089 47.5199C145.499 46.8499 146.069 46.3299 146.789 45.9499C147.519 45.5699 148.339 45.3799 149.269 45.3799C150.179 45.3799 150.969 45.5699 151.639 45.9499C152.309 46.3299 152.809 46.8699 153.129 47.5699L151.189 48.6099C150.969 48.1999 150.689 47.9099 150.349 47.7099C150.009 47.5099 149.649 47.4199 149.249 47.4199C148.819 47.4199 148.439 47.5199 148.099 47.7099C147.759 47.8999 147.489 48.1699 147.289 48.5299C147.089 48.8899 146.989 49.3099 146.989 49.8099C146.989 50.3099 147.089 50.7399 147.289 51.0899C147.489 51.4399 147.759 51.7099 148.099 51.9099C148.439 52.0999 148.829 52.1999 149.249 52.1999C149.639 52.1999 150.009 52.1099 150.349 51.9199C150.689 51.7299 150.969 51.4299 151.189 51.0199L153.129 52.0799C152.809 52.7699 152.309 53.3099 151.639 53.6899C150.959 54.0799 150.179 54.2599 149.269 54.2599Z" fill="black"/>
<path d="M154.5 54.1398V42.2598H157V54.1298H154.5V54.1398ZM156.56 52.3798L156.62 49.3398L160.64 45.5298H163.62L159.76 49.4498L158.46 50.5098L156.56 52.3798ZM160.92 54.1398L158 50.5198L159.57 48.5798L163.94 54.1298H160.92V54.1398Z" fill="black"/>
<path d="M164.32 50.6299V48.6299H168.85V50.6299H164.32Z" fill="black"/>
<path d="M170.82 54.1398V42.2598H173.32V47.2698L173.16 49.8098L173.21 52.3698V54.1298H170.82V54.1398ZM175.91 54.2598C175.15 54.2598 174.5 54.0998 173.96 53.7798C173.42 53.4598 173 52.9698 172.71 52.3198C172.42 51.6598 172.28 50.8298 172.28 49.8298C172.28 48.8198 172.43 47.9798 172.74 47.3298C173.04 46.6798 173.47 46.1898 174.01 45.8698C174.55 45.5498 175.19 45.3898 175.91 45.3898C176.72 45.3898 177.45 45.5698 178.09 45.9298C178.73 46.2898 179.25 46.7998 179.63 47.4698C180.01 48.1298 180.2 48.9198 180.2 49.8198C180.2 50.7198 180.01 51.4898 179.63 52.1598C179.25 52.8198 178.74 53.3398 178.09 53.6998C177.45 54.0798 176.72 54.2598 175.91 54.2598ZM175.48 52.2198C175.9 52.2198 176.27 52.1198 176.59 51.9298C176.91 51.7398 177.18 51.4598 177.37 51.1098C177.57 50.7498 177.67 50.3298 177.67 49.8398C177.67 49.3398 177.57 48.9098 177.37 48.5598C177.17 48.2098 176.91 47.9398 176.59 47.7398C176.27 47.5398 175.89 47.4498 175.48 47.4498C175.07 47.4498 174.69 47.5498 174.36 47.7398C174.03 47.9298 173.77 48.1998 173.58 48.5598C173.39 48.9098 173.29 49.3398 173.29 49.8398C173.29 50.3298 173.39 50.7598 173.58 51.1098C173.77 51.4698 174.03 51.7398 174.36 51.9298C174.69 52.1198 175.06 52.2198 175.48 52.2198Z" fill="black"/>
<path d="M185.959 54.2599C185.039 54.2599 184.229 54.0699 183.519 53.6799C182.809 53.2999 182.249 52.7699 181.839 52.0999C181.429 51.4299 181.219 50.6699 181.219 49.8199C181.219 48.9599 181.429 48.1899 181.839 47.5199C182.249 46.8499 182.809 46.3299 183.519 45.9499C184.229 45.5699 185.039 45.3799 185.959 45.3799C186.869 45.3799 187.679 45.5699 188.389 45.9499C189.099 46.3299 189.659 46.8499 190.069 47.5099C190.479 48.1699 190.679 48.9399 190.679 49.8099C190.679 50.6599 190.479 51.4199 190.069 52.0899C189.659 52.7599 189.099 53.2799 188.389 53.6699C187.669 54.0699 186.859 54.2599 185.959 54.2599ZM185.959 52.2199C186.379 52.2199 186.749 52.1199 187.079 51.9299C187.409 51.7399 187.669 51.4599 187.859 51.1099C188.049 50.7499 188.149 50.3299 188.149 49.8399C188.149 49.3399 188.049 48.9099 187.859 48.5599C187.669 48.2099 187.409 47.9399 187.079 47.7399C186.749 47.5499 186.379 47.4499 185.959 47.4499C185.539 47.4499 185.169 47.5499 184.839 47.7399C184.509 47.9299 184.249 48.1999 184.049 48.5599C183.849 48.9199 183.749 49.3399 183.749 49.8399C183.749 50.3299 183.849 50.7599 184.049 51.1099C184.249 51.4699 184.509 51.7399 184.839 51.9299C185.169 52.1199 185.539 52.2199 185.959 52.2199Z" fill="black"/>
<path d="M191.32 47.6401V45.7201H197.29V47.6401H191.32ZM195.86 54.2601C194.85 54.2601 194.06 54.0001 193.49 53.4801C192.92 52.9601 192.64 52.1901 192.64 51.1701V43.6201H195.14V51.1401C195.14 51.5001 195.24 51.7801 195.43 51.9801C195.62 52.1801 195.88 52.2801 196.21 52.2801C196.6 52.2801 196.94 52.1701 197.22 51.9601L197.89 53.7201C197.63 53.9001 197.33 54.0401 196.97 54.1301C196.61 54.2201 196.24 54.2601 195.86 54.2601Z" fill="black"/>
<path d="M95.2558 71.05H11.3058C10.2658 71.05 9.42578 70.21 9.42578 69.17V14.13C9.42578 13.09 10.2658 12.25 11.3058 12.25H95.2558C96.2958 12.25 97.1358 13.09 97.1358 14.13V69.17C97.1358 70.2 96.2958 71.05 95.2558 71.05Z" fill="url(#paint0_radial_1102_2001)"/>
<path d="M99.6767 76.6999C99.1467 76.6999 98.3467 76.6999 98.3467 76.6999H64.4967C64.4967 76.6999 63.2167 76.6599 62.7467 77.3799C62.5367 77.7099 61.8667 77.8899 61.4067 77.8899C58.6967 77.9099 47.8667 77.9099 45.1567 77.8899C44.6967 77.8899 44.0267 77.7099 43.8167 77.3799C43.3467 76.6499 42.0667 76.6999 42.0667 76.6999H8.21672C8.21672 76.6999 7.41672 76.6999 6.88672 76.6999C6.88672 77.2299 6.88672 77.5999 6.88672 77.9699C6.88672 80.3299 7.02672 80.4699 9.42672 80.4699C26.1267 80.4699 80.4267 80.4699 97.1267 80.4699C99.5267 80.4699 99.6667 80.3299 99.6667 77.9699C99.6767 77.5999 99.6767 77.2299 99.6767 76.6999Z" stroke="black" stroke-width="1.3" stroke-miterlimit="10" stroke-linecap="round" stroke-linejoin="round"/>
<path d="M97.1367 17.1699V24.9099" stroke="black" stroke-width="1.6" stroke-miterlimit="10" stroke-linecap="round" stroke-linejoin="round"/>
<path d="M97.1367 17.1699V24.9099" stroke="black" stroke-width="1.3" stroke-miterlimit="10" stroke-linecap="round" stroke-linejoin="round"/>
<path d="M93.2656 21.04H101.006" stroke="black" stroke-width="1.3" stroke-miterlimit="10" stroke-linecap="round" stroke-linejoin="round"/>
<path d="M97.1362 29.0196C101.543 29.0196 105.116 25.4468 105.116 21.0396C105.116 16.6323 101.543 13.0596 97.1362 13.0596C92.729 13.0596 89.1562 16.6323 89.1562 21.0396C89.1562 25.4468 92.729 29.0196 97.1362 29.0196Z" stroke="black" stroke-width="1.3" stroke-miterlimit="10" stroke-linecap="round" stroke-linejoin="round"/>
<path d="M35.0083 46.8398C45.7889 46.8398 54.5283 38.1004 54.5283 27.3198C54.5283 16.5392 45.7889 7.7998 35.0083 7.7998C24.2277 7.7998 15.4883 16.5392 15.4883 27.3198C15.4883 38.1004 24.2277 46.8398 35.0083 46.8398Z" fill="white" stroke="black" stroke-width="1.3" stroke-miterlimit="10.0003" stroke-linecap="round" stroke-linejoin="round"/>
<path d="M48.8164 41.1299L57.4064 49.7199" stroke="black" stroke-width="1.3" stroke-miterlimit="10" stroke-linecap="round" stroke-linejoin="round"/>
<path d="M71.6689 63.2395L70.9289 63.9795C70.0589 64.8495 68.6489 64.8495 67.7789 63.9795L57.9689 54.1695C57.0989 53.2995 57.0989 51.8895 57.9689 51.0195L58.7089 50.2795C59.5789 49.4095 60.9889 49.4095 61.8589 50.2795L71.6689 60.0895C72.5389 60.9595 72.5389 62.3695 71.6689 63.2395Z" stroke="black" stroke-width="1.3" stroke-miterlimit="10" stroke-linecap="round" stroke-linejoin="round"/>
<path d="M28.2891 34.0193V27.3193" stroke="black" stroke-width="1.6486" stroke-miterlimit="10" stroke-linecap="round" stroke-linejoin="round"/>
<path d="M34.3008 34.0191V22.5391" stroke="black" stroke-width="1.6486" stroke-miterlimit="10" stroke-linecap="round" stroke-linejoin="round"/>
<path d="M40.3086 34.0195V18.0195" stroke="black" stroke-width="1.6486" stroke-miterlimit="10" stroke-linecap="round" stroke-linejoin="round"/>
<path d="M27.2773 54.9404H45.2373" stroke="black" stroke-width="1.3" stroke-miterlimit="10" stroke-linecap="round" stroke-linejoin="round"/>
<path d="M27.2773 59.5703H45.2373" stroke="black" stroke-width="1.3" stroke-miterlimit="10" stroke-linecap="round" stroke-linejoin="round"/>
<path d="M23.2477 55.84C23.8828 55.84 24.3977 55.3252 24.3977 54.69C24.3977 54.0549 23.8828 53.54 23.2477 53.54C22.6125 53.54 22.0977 54.0549 22.0977 54.69C22.0977 55.3252 22.6125 55.84 23.2477 55.84Z" fill="black"/>
<path d="M23.2477 60.7199C23.8828 60.7199 24.3977 60.2051 24.3977 59.5699C24.3977 58.9348 23.8828 58.4199 23.2477 58.4199C22.6125 58.4199 22.0977 58.9348 22.0977 59.5699C22.0977 60.2051 22.6125 60.7199 23.2477 60.7199Z" fill="black"/>
<path d="M67.177 37.3691H62.957V43.0691H67.177V37.3691Z" fill="white" stroke="black" stroke-width="1.3" stroke-miterlimit="10" stroke-linecap="round" stroke-linejoin="round"/>
<path d="M74.927 33.5996H70.707V43.0696H74.927V33.5996Z" fill="white" stroke="black" stroke-width="1.3" stroke-miterlimit="10" stroke-linecap="round" stroke-linejoin="round"/>
<path d="M82.6653 28.3193H78.4453V43.0693H82.6653V28.3193Z" fill="white" stroke="black" stroke-width="1.3" stroke-miterlimit="10" stroke-linecap="round" stroke-linejoin="round"/>
</g>
<defs>
<radialGradient id="paint0_radial_1102_2001" cx="0" cy="0" r="1" gradientUnits="userSpaceOnUse" gradientTransform="translate(-21.0479 -22.0604) scale(184.62 184.62)">
<stop offset="0.3494" stop-color="#F37022"/>
<stop offset="0.4212" stop-color="#FF8635"/>
<stop offset="0.5047" stop-color="#FFA56A"/>
<stop offset="0.5894" stop-color="#FFC197"/>
<stop offset="0.6735" stop-color="#FFD7BD"/>
<stop offset="0.7569" stop-color="#FFE9DA"/>
<stop offset="0.8396" stop-color="#FFF5EE"/>
<stop offset="0.921" stop-color="#FFFDFB"/>
<stop offset="1" stop-color="white"/>
</radialGradient>
<clipPath id="clip0_1102_2001">
<rect width="216" height="93" fill="white"/>
</clipPath>
</defs>
</svg>
