<svg width="216" height="93" viewBox="0 0 216 93" fill="none" xmlns="http://www.w3.org/2000/svg">
<g clip-path="url(#clip0_1102_2042)">
<path d="M215.868 0.450195H-0.171875V92.7902H215.868V0.450195Z" fill="white"/>
<path d="M116.336 42.6102V31.4102H121.426C122.646 31.4102 123.716 31.6402 124.646 32.1102C125.576 32.5802 126.296 33.2202 126.826 34.0502C127.356 34.8802 127.606 35.8702 127.606 37.0102C127.606 38.1402 127.346 39.1302 126.826 39.9602C126.306 40.8002 125.576 41.4502 124.646 41.9102C123.716 42.3702 122.646 42.6102 121.426 42.6102H116.336ZM118.926 40.4802H121.296C122.046 40.4802 122.686 40.3402 123.236 40.0602C123.786 39.7802 124.216 39.3702 124.516 38.8502C124.816 38.3302 124.976 37.7102 124.976 37.0102C124.976 36.3002 124.826 35.6802 124.516 35.1602C124.216 34.6402 123.786 34.2402 123.236 33.9602C122.686 33.6802 122.036 33.5402 121.296 33.5402H118.926V40.4802Z" fill="black"/>
<path d="M132.038 42.7401C131.368 42.7401 130.788 42.6201 130.308 42.4001C129.828 42.1701 129.458 41.8601 129.208 41.4601C128.948 41.0701 128.828 40.6201 128.828 40.1301C128.828 39.6201 128.948 39.1701 129.208 38.7901C129.468 38.4101 129.858 38.1001 130.398 37.8901C130.938 37.6701 131.648 37.5601 132.528 37.5601H134.818V39.0201H132.798C132.208 39.0201 131.808 39.1201 131.588 39.3101C131.368 39.5001 131.258 39.7401 131.258 40.0301C131.258 40.3501 131.378 40.6001 131.638 40.7901C131.888 40.9801 132.228 41.0701 132.668 41.0701C133.088 41.0701 133.458 40.9701 133.788 40.7701C134.118 40.5701 134.358 40.2801 134.508 39.9001L134.888 41.0501C134.708 41.6001 134.378 42.0301 133.898 42.3101C133.408 42.5901 132.788 42.7401 132.038 42.7401ZM134.658 42.6101V40.9301L134.498 40.5601V37.5501C134.498 37.0201 134.338 36.6001 134.008 36.3001C133.678 36.0001 133.188 35.8501 132.508 35.8501C132.048 35.8501 131.598 35.9201 131.158 36.0701C130.718 36.2101 130.338 36.4101 130.028 36.6501L129.128 34.9101C129.598 34.5801 130.158 34.3201 130.828 34.1401C131.488 33.9601 132.158 33.8701 132.848 33.8701C134.158 33.8701 135.178 34.1801 135.908 34.8001C136.638 35.4201 136.998 36.3801 136.998 37.7001V42.6101H134.658Z" fill="black"/>
<path d="M138.227 36.1106V34.1906H144.197V36.1106H138.227ZM142.767 42.7406C141.757 42.7406 140.967 42.4806 140.397 41.9606C139.827 41.4406 139.547 40.6706 139.547 39.6506V32.1006H142.047V39.6206C142.047 39.9806 142.147 40.2606 142.337 40.4606C142.527 40.6606 142.787 40.7606 143.117 40.7606C143.507 40.7606 143.847 40.6506 144.127 40.4406L144.797 42.2006C144.537 42.3806 144.237 42.5206 143.877 42.6106C143.527 42.6906 143.157 42.7406 142.767 42.7406Z" fill="black"/>
<path d="M148.866 42.7401C148.196 42.7401 147.616 42.6201 147.136 42.4001C146.656 42.1701 146.286 41.8601 146.036 41.4601C145.776 41.0701 145.656 40.6201 145.656 40.1301C145.656 39.6201 145.776 39.1701 146.036 38.7901C146.296 38.4101 146.686 38.1001 147.226 37.8901C147.766 37.6701 148.476 37.5601 149.356 37.5601H151.646V39.0201H149.626C149.036 39.0201 148.636 39.1201 148.416 39.3101C148.196 39.5001 148.086 39.7401 148.086 40.0301C148.086 40.3501 148.206 40.6001 148.466 40.7901C148.716 40.9801 149.056 41.0701 149.496 41.0701C149.916 41.0701 150.286 40.9701 150.616 40.7701C150.946 40.5701 151.186 40.2801 151.336 39.9001L151.716 41.0501C151.536 41.6001 151.206 42.0301 150.726 42.3101C150.236 42.5901 149.626 42.7401 148.866 42.7401ZM151.486 42.6101V40.9301L151.326 40.5601V37.5501C151.326 37.0201 151.166 36.6001 150.836 36.3001C150.506 36.0001 150.016 35.8501 149.336 35.8501C148.876 35.8501 148.426 35.9201 147.986 36.0701C147.546 36.2101 147.166 36.4101 146.856 36.6501L145.956 34.9101C146.426 34.5801 146.986 34.3201 147.656 34.1401C148.316 33.9601 148.986 33.8701 149.676 33.8701C150.986 33.8701 152.006 34.1801 152.736 34.8001C153.466 35.4201 153.826 36.3801 153.826 37.7001V42.6101H151.486Z" fill="black"/>
<path d="M120.017 62.57C119.117 62.57 118.267 62.45 117.437 62.21C116.617 61.97 115.957 61.66 115.457 61.27L116.337 59.32C116.817 59.66 117.387 59.94 118.037 60.16C118.687 60.38 119.357 60.49 120.027 60.49C120.537 60.49 120.947 60.44 121.267 60.34C121.587 60.24 121.817 60.1 121.967 59.92C122.117 59.74 122.187 59.53 122.187 59.3C122.187 59 122.067 58.76 121.837 58.59C121.607 58.41 121.297 58.27 120.907 58.16C120.527 58.05 120.097 57.94 119.637 57.84C119.177 57.74 118.707 57.61 118.247 57.46C117.787 57.31 117.357 57.12 116.977 56.88C116.597 56.64 116.277 56.34 116.037 55.95C115.797 55.57 115.677 55.08 115.677 54.48C115.677 53.84 115.847 53.26 116.197 52.73C116.547 52.2 117.067 51.78 117.767 51.47C118.467 51.16 119.347 51 120.397 51C121.097 51 121.797 51.08 122.477 51.25C123.157 51.42 123.767 51.66 124.287 51.99L123.487 53.96C122.967 53.66 122.437 53.44 121.917 53.3C121.397 53.16 120.877 53.08 120.377 53.08C119.877 53.08 119.467 53.14 119.147 53.26C118.827 53.38 118.597 53.53 118.457 53.72C118.317 53.91 118.247 54.12 118.247 54.37C118.247 54.66 118.367 54.89 118.597 55.07C118.837 55.25 119.137 55.39 119.527 55.49C119.907 55.6 120.337 55.7 120.797 55.81C121.257 55.92 121.727 56.04 122.187 56.18C122.647 56.32 123.077 56.51 123.457 56.74C123.837 56.97 124.157 57.28 124.397 57.67C124.637 58.05 124.757 58.54 124.757 59.13C124.757 59.76 124.577 60.34 124.227 60.86C123.877 61.38 123.347 61.8 122.647 62.12C121.967 62.42 121.087 62.57 120.017 62.57Z" fill="black"/>
<path d="M125.348 55.8901V53.9701H131.318V55.8901H125.348ZM129.888 62.5101C128.878 62.5101 128.088 62.2501 127.518 61.7301C126.948 61.2101 126.668 60.4401 126.668 59.4201V51.8701H129.168V59.3901C129.168 59.7501 129.268 60.0301 129.458 60.2301C129.648 60.4301 129.908 60.5301 130.238 60.5301C130.628 60.5301 130.968 60.4201 131.248 60.2101L131.918 61.9701C131.658 62.1501 131.358 62.2901 130.998 62.3801C130.648 62.4701 130.278 62.5101 129.888 62.5101Z" fill="black"/>
<path d="M133.328 62.3804V53.7704H135.708V56.2004L135.368 55.5004C135.628 54.8904 136.038 54.4304 136.598 54.1204C137.168 53.8104 137.848 53.6504 138.658 53.6504V55.9504C138.548 55.9404 138.458 55.9304 138.368 55.9304C138.278 55.9204 138.188 55.9204 138.098 55.9204C137.418 55.9204 136.868 56.1104 136.438 56.5004C136.018 56.8904 135.808 57.4904 135.808 58.3204V62.3804H133.328Z" fill="black"/>
<path d="M144.355 62.5099C143.375 62.5099 142.515 62.3199 141.775 61.9299C141.035 61.5399 140.465 61.0199 140.055 60.3499C139.645 59.6799 139.445 58.9199 139.445 58.0699C139.445 57.2099 139.645 56.4399 140.045 55.7699C140.445 55.0999 140.995 54.5799 141.685 54.1999C142.375 53.8199 143.165 53.6299 144.035 53.6299C144.875 53.6299 145.635 53.8099 146.315 54.1699C146.995 54.5299 147.525 55.0399 147.925 55.7099C148.325 56.3799 148.515 57.1699 148.515 58.0999C148.515 58.1999 148.505 58.3099 148.495 58.4299C148.485 58.5499 148.475 58.6699 148.465 58.7699H141.475V57.3099H147.155L146.195 57.7399C146.195 57.2899 146.105 56.8999 145.925 56.5699C145.745 56.2399 145.495 55.9799 145.175 55.7899C144.855 55.5999 144.485 55.5099 144.055 55.5099C143.625 55.5099 143.255 55.5999 142.925 55.7899C142.595 55.9799 142.345 56.2399 142.165 56.5699C141.985 56.9099 141.895 57.2999 141.895 57.7599V58.1399C141.895 58.6099 141.995 59.0199 142.205 59.3799C142.415 59.7399 142.705 60.0099 143.085 60.1999C143.465 60.3899 143.905 60.4799 144.425 60.4799C144.885 60.4799 145.285 60.4099 145.635 60.2699C145.985 60.1299 146.295 59.9199 146.585 59.6499L147.915 61.0899C147.525 61.5399 147.025 61.8799 146.425 62.1199C145.815 62.3899 145.135 62.5099 144.355 62.5099Z" fill="black"/>
<path d="M152.597 62.5106C151.927 62.5106 151.347 62.3906 150.867 62.1706C150.387 61.9406 150.017 61.6306 149.767 61.2306C149.507 60.8406 149.387 60.3906 149.387 59.9006C149.387 59.3906 149.507 58.9406 149.767 58.5606C150.027 58.1806 150.417 57.8706 150.957 57.6606C151.497 57.4406 152.207 57.3306 153.087 57.3306H155.377V58.7906H153.357C152.767 58.7906 152.367 58.8906 152.147 59.0806C151.927 59.2706 151.817 59.5106 151.817 59.8006C151.817 60.1206 151.937 60.3706 152.197 60.5606C152.447 60.7506 152.787 60.8406 153.227 60.8406C153.647 60.8406 154.017 60.7406 154.347 60.5406C154.677 60.3406 154.917 60.0506 155.067 59.6706L155.447 60.8206C155.267 61.3706 154.937 61.8006 154.457 62.0806C153.967 62.3706 153.347 62.5106 152.597 62.5106ZM155.217 62.3806V60.7006L155.057 60.3306V57.3206C155.057 56.7906 154.897 56.3706 154.567 56.0706C154.237 55.7706 153.747 55.6206 153.067 55.6206C152.607 55.6206 152.157 55.6906 151.717 55.8406C151.277 55.9806 150.897 56.1806 150.587 56.4206L149.687 54.6806C150.157 54.3506 150.717 54.0906 151.387 53.9106C152.047 53.7306 152.717 53.6406 153.407 53.6406C154.717 53.6406 155.737 53.9506 156.467 54.5706C157.197 55.1906 157.557 56.1506 157.557 57.4706V62.3806H155.217Z" fill="black"/>
<path d="M170.839 53.6501C171.519 53.6501 172.129 53.7901 172.659 54.0601C173.189 54.3301 173.599 54.7501 173.909 55.3101C174.209 55.8701 174.369 56.5901 174.369 57.4601V62.3901H171.869V57.8501C171.869 57.1601 171.729 56.6401 171.439 56.3101C171.149 55.9801 170.749 55.8101 170.219 55.8101C169.859 55.8101 169.529 55.8901 169.239 56.0601C168.949 56.2301 168.729 56.4701 168.569 56.8001C168.409 57.1301 168.329 57.5501 168.329 58.0601V62.3801H165.829V57.8401C165.829 57.1501 165.689 56.6301 165.409 56.3001C165.129 55.9701 164.719 55.8001 164.199 55.8001C163.839 55.8001 163.509 55.8801 163.219 56.0501C162.929 56.2201 162.709 56.4601 162.549 56.7901C162.389 57.1201 162.309 57.5401 162.309 58.0501V62.3701H159.809V53.7601H162.189V56.1101L161.739 55.4201C162.039 54.8301 162.459 54.3901 163.009 54.0801C163.559 53.7801 164.189 53.6201 164.889 53.6201C165.679 53.6201 166.369 53.8201 166.959 54.2201C167.549 54.6201 167.939 55.2301 168.139 56.0501L167.259 55.8101C167.549 55.1401 168.009 54.6001 168.639 54.2101C169.289 53.8401 170.009 53.6501 170.839 53.6501Z" fill="black"/>
<path d="M95.2558 71.05H11.3058C10.2658 71.05 9.42578 70.21 9.42578 69.17V14.13C9.42578 13.09 10.2658 12.25 11.3058 12.25H95.2558C96.2958 12.25 97.1358 13.09 97.1358 14.13V69.17C97.1358 70.2 96.2958 71.05 95.2558 71.05Z" fill="url(#paint0_radial_1102_2042)"/>
<path d="M99.6767 76.6999C99.1467 76.6999 98.3467 76.6999 98.3467 76.6999H64.4967C64.4967 76.6999 63.2167 76.6599 62.7467 77.3799C62.5367 77.7099 61.8667 77.8899 61.4067 77.8899C58.6967 77.9099 47.8667 77.9099 45.1567 77.8899C44.6967 77.8899 44.0267 77.7099 43.8167 77.3799C43.3467 76.6499 42.0667 76.6999 42.0667 76.6999H8.21672C8.21672 76.6999 7.41672 76.6999 6.88672 76.6999C6.88672 77.2299 6.88672 77.5999 6.88672 77.9699C6.88672 80.3299 7.02672 80.4699 9.42672 80.4699C26.1267 80.4699 80.4267 80.4699 97.1267 80.4699C99.5267 80.4699 99.6667 80.3299 99.6667 77.9699C99.6767 77.5999 99.6767 77.2299 99.6767 76.6999Z" stroke="black" stroke-width="1.3" stroke-miterlimit="10" stroke-linecap="round" stroke-linejoin="round"/>
<path d="M20.7148 70.2499V30.0299V24.0499C20.7148 22.4399 22.1348 21.1299 23.8748 21.1299H82.6848C84.4348 21.1299 85.8448 22.4399 85.8448 24.0499V70.2499" stroke="black" stroke-width="1.3" stroke-miterlimit="10" stroke-linecap="round" stroke-linejoin="round"/>
<path d="M85.7277 30.0303H20.8477" stroke="black" stroke-width="1.3" stroke-miterlimit="10" stroke-linecap="round" stroke-linejoin="round"/>
<path d="M79.877 36.1396H26.707V50.0396H79.877V36.1396Z" fill="white" stroke="black" stroke-width="1.3" stroke-miterlimit="10" stroke-linecap="round" stroke-linejoin="round"/>
<path d="M51.477 54.1396H26.707V65.8896H51.477V54.1396Z" stroke="black" stroke-width="1.3" stroke-miterlimit="10" stroke-linecap="round" stroke-linejoin="round"/>
<path d="M79.8755 54.1396H55.1055V65.8896H79.8755V54.1396Z" stroke="black" stroke-width="1.3" stroke-miterlimit="10" stroke-linecap="round" stroke-linejoin="round"/>
<path d="M25.9972 26.5998C26.6213 26.5998 27.1272 26.0939 27.1272 25.4698C27.1272 24.8458 26.6213 24.3398 25.9972 24.3398C25.3731 24.3398 24.8672 24.8458 24.8672 25.4698C24.8672 26.0939 25.3731 26.5998 25.9972 26.5998Z" fill="black"/>
<path d="M30.1378 26.5998C30.7619 26.5998 31.2678 26.0939 31.2678 25.4698C31.2678 24.8458 30.7619 24.3398 30.1378 24.3398C29.5137 24.3398 29.0078 24.8458 29.0078 25.4698C29.0078 26.0939 29.5137 26.5998 30.1378 26.5998Z" fill="black"/>
<path d="M34.2784 26.5998C34.9025 26.5998 35.4084 26.0939 35.4084 25.4698C35.4084 24.8458 34.9025 24.3398 34.2784 24.3398C33.6544 24.3398 33.1484 24.8458 33.1484 25.4698C33.1484 26.0939 33.6544 26.5998 34.2784 26.5998Z" fill="black"/>
<path d="M97.0586 16.3701V24.1001" stroke="black" stroke-width="1.6" stroke-miterlimit="10" stroke-linecap="round" stroke-linejoin="round"/>
<path d="M97.0586 16.3701V24.1001" stroke="black" stroke-width="1.3" stroke-miterlimit="10" stroke-linecap="round" stroke-linejoin="round"/>
<path d="M93.1875 20.2305H100.927" stroke="black" stroke-width="1.3" stroke-miterlimit="10" stroke-linecap="round" stroke-linejoin="round"/>
<path d="M97.0581 28.21C101.465 28.21 105.038 24.6372 105.038 20.23C105.038 15.8228 101.465 12.25 97.0581 12.25C92.6509 12.25 89.0781 15.8228 89.0781 20.23C89.0781 24.6372 92.6509 28.21 97.0581 28.21Z" stroke="black" stroke-width="1.3" stroke-miterlimit="10" stroke-linecap="round" stroke-linejoin="round"/>
</g>
<defs>
<radialGradient id="paint0_radial_1102_2042" cx="0" cy="0" r="1" gradientUnits="userSpaceOnUse" gradientTransform="translate(-21.0479 -22.0604) scale(184.62 184.62)">
<stop offset="0.3482" stop-color="#F37022"/>
<stop offset="0.4212" stop-color="#FF8635"/>
<stop offset="0.5047" stop-color="#FFA56A"/>
<stop offset="0.5894" stop-color="#FFC197"/>
<stop offset="0.6735" stop-color="#FFD7BD"/>
<stop offset="0.7569" stop-color="#FFE9DA"/>
<stop offset="0.8396" stop-color="#FFF5EE"/>
<stop offset="0.921" stop-color="#FFFDFB"/>
<stop offset="1" stop-color="white"/>
</radialGradient>
<clipPath id="clip0_1102_2042">
<rect width="216" height="93" fill="white"/>
</clipPath>
</defs>
</svg>
