<svg width="491" height="423" viewBox="0 0 491 423" fill="none" xmlns="http://www.w3.org/2000/svg">
<g clip-path="url(#clip0_1103_2116)">
<path d="M450.43 126.47L361.55 12.6102L351.44 -0.339844H335.01H258.21H235.99H132.71H116.28L106.17 12.6102L17.2805 126.47L0.480469 148L18.0805 168.89L206.89 392.9L232.47 423.25L258.24 393.06L449.5 169.05L467.35 148.14L450.43 126.47ZM410.75 130.35H322.15L347.59 49.4402L410.75 130.35ZM258.21 33.3202H317.36L286.85 130.35H180.1L150.32 33.3202H235.99H258.21ZM190.43 164.03H276.26L232.82 302.18L190.43 164.03ZM120.07 49.5202L144.88 130.35H56.9805L120.07 49.5202ZM58.0205 164.03H155.21L210.87 345.37L58.0205 164.03ZM254.46 345.63L311.56 164.02H409.51L254.46 345.63Z" fill="url(#paint0_radial_1103_2116)"/>
<path d="M388.292 19.75L488.472 148.1L272.892 400.6L60.0622 148.1L160.252 19.75H276.672H301.722H388.292ZM389.262 17.75H388.282H301.712H276.662H160.252H159.272L158.672 18.52L58.4922 146.87L57.4922 148.15L58.5422 149.39L271.372 401.9L272.892 403.7L274.422 401.91L489.992 149.4L491.052 148.16L490.052 146.87L389.862 18.52L389.262 17.75Z" fill="#F37022"/>
<path d="M159.293 20.03L272.883 404.09L389.243 20.04L387.333 19.46L272.903 397.12L161.213 19.47L159.293 20.03Z" fill="#F37022"/>
<path d="M60.0625 149.1H488.473V147.1H60.0625" fill="#F37022"/>
</g>
<defs>
<radialGradient id="paint0_radial_1103_2116" cx="0" cy="0" r="1" gradientUnits="userSpaceOnUse" gradientTransform="translate(492.371 -63.1701) scale(617.429 617.429)">
<stop stop-color="#FF6600"/>
<stop offset="0.0644" stop-color="#FF7418"/>
<stop offset="0.2653" stop-color="#FF9E5D"/>
<stop offset="0.4555" stop-color="#FFC097"/>
<stop offset="0.6293" stop-color="#FFDBC4"/>
<stop offset="0.7834" stop-color="#FFEFE4"/>
<stop offset="0.9123" stop-color="#FFFBF8"/>
<stop offset="1" stop-color="white"/>
</radialGradient>
<clipPath id="clip0_1103_2116">
<rect width="491" height="423" fill="white"/>
</clipPath>
</defs>
</svg>
