<svg width="216" height="93" viewBox="0 0 216 93" fill="none" xmlns="http://www.w3.org/2000/svg">
<g clip-path="url(#clip0_1102_1894)">
<path d="M215.868 0.450195H-0.171875V92.7902H215.868V0.450195Z" fill="white"/>
<path d="M95.2558 72H11.3058C10.2658 72 9.42578 71.16 9.42578 70.12V15.09C9.42578 14.05 10.2658 13.21 11.3058 13.21H95.2558C96.2958 13.21 97.1358 14.05 97.1358 15.09V70.13C97.1358 71.16 96.2958 72 95.2558 72Z" fill="url(#paint0_radial_1102_1894)"/>
<path d="M99.6767 76.03C99.1467 76.03 98.3467 76.03 98.3467 76.03H64.4967C64.4967 76.03 63.2167 75.99 62.7467 76.71C62.5367 77.04 61.8667 77.22 61.4067 77.22C58.6967 77.24 47.8667 77.24 45.1567 77.22C44.6967 77.22 44.0267 77.04 43.8167 76.71C43.3467 75.98 42.0667 76.03 42.0667 76.03H8.21672C8.21672 76.03 7.41672 76.03 6.88672 76.03C6.88672 76.56 6.88672 76.93 6.88672 77.3C6.88672 79.66 7.02672 79.8 9.42672 79.8C26.1267 79.8 80.4267 79.8 97.1267 79.8C99.5267 79.8 99.6667 79.66 99.6667 77.3C99.6767 76.93 99.6767 76.56 99.6767 76.03Z" stroke="black" stroke-width="1.3" stroke-miterlimit="10" stroke-linecap="round" stroke-linejoin="round"/>
<path d="M97.1367 17.3203V25.0603" stroke="black" stroke-width="1.6" stroke-miterlimit="10" stroke-linecap="round" stroke-linejoin="round"/>
<path d="M97.1367 17.3203V25.0603" stroke="black" stroke-width="1.3" stroke-miterlimit="10" stroke-linecap="round" stroke-linejoin="round"/>
<path d="M93.2656 21.1904H101.006" stroke="black" stroke-width="1.3" stroke-miterlimit="10" stroke-linecap="round" stroke-linejoin="round"/>
<path d="M97.1362 29.17C101.543 29.17 105.116 25.5972 105.116 21.19C105.116 16.7827 101.543 13.21 97.1362 13.21C92.729 13.21 89.1562 16.7827 89.1562 21.19C89.1562 25.5972 92.729 29.17 97.1362 29.17Z" stroke="black" stroke-width="1.3" stroke-miterlimit="10" stroke-linecap="round" stroke-linejoin="round"/>
<path d="M63.2678 58.2695C63.3778 58.2095 63.4278 58.1695 63.5278 58.2095C70.8678 59.4195 70.8678 59.4195 70.8678 59.4195C60.6278 41.7695 60.6278 41.7695 60.6278 41.7695C50.2578 47.7695 50.2578 47.7695 50.2578 47.7695C60.4878 65.4295 60.4878 65.4295 60.4878 65.4295C63.1378 58.4295 63.1378 58.4295 63.1378 58.4295C63.1578 58.3395 63.2078 58.2995 63.2678 58.2695Z" stroke="black" stroke-width="1.3" stroke-miterlimit="10" stroke-linecap="round" stroke-linejoin="round"/>
<path d="M43.6966 58.4295C43.6966 58.4295 43.6966 58.4295 46.3466 65.4295C46.3466 65.4295 46.3466 65.4295 56.5766 47.7695C56.5766 47.7695 56.5766 47.7695 46.2066 41.7695C46.2066 41.7695 46.2066 41.7695 35.9766 59.4295C35.9766 59.4295 35.9766 59.4295 43.3166 58.2195C43.4066 58.1795 43.4666 58.2095 43.5766 58.2795C43.6266 58.2995 43.6866 58.3395 43.6966 58.4295Z" stroke="black" stroke-width="1.3" stroke-miterlimit="10" stroke-linecap="round" stroke-linejoin="round"/>
<path d="M77.4675 30.6799C77.4975 29.7499 77.1375 28.9399 76.5275 28.1999C75.4575 26.9199 74.4075 25.6199 73.3475 24.3399C72.4775 23.2899 72.0375 22.0899 71.9275 20.7399C71.7875 19.0099 71.6375 17.2699 71.3975 15.5599C71.1575 13.8499 69.8175 12.6799 68.0875 12.5199C66.5475 12.3799 65.0075 12.1999 63.4575 12.0899C61.8575 11.9699 60.4675 11.4099 59.2475 10.3399C58.1175 9.34994 56.9375 8.40994 55.7775 7.45994C54.1875 6.15994 52.4175 6.15994 50.8375 7.43994C49.5575 8.47994 48.2975 9.51994 47.0275 10.5799C46.0675 11.3799 44.9775 11.8899 43.7175 12.0099C41.9675 12.1799 40.2175 12.3599 38.4575 12.5299C36.6475 12.7099 35.2975 14.0599 35.1275 15.8799C34.9775 17.4199 34.8075 18.9599 34.6975 20.5099C34.5775 22.1099 34.0275 23.5099 32.9575 24.7199C31.9775 25.8299 31.0675 26.9899 30.1275 28.1399C28.7275 29.8499 28.7475 31.5799 30.1675 33.2999C31.2175 34.5699 32.2575 35.8399 33.2975 37.1099C34.0275 37.9999 34.4775 39.0199 34.5975 40.1799C34.7775 41.9599 34.9575 43.7299 35.1275 45.5099C35.2975 47.2199 36.4675 48.5499 38.1775 48.8099C39.4775 48.9999 40.7875 49.1499 42.0975 49.1999C44.3175 49.2799 46.2675 49.9299 47.8975 51.5199C48.7875 52.3799 49.8075 53.1199 50.7675 53.9099C52.3775 55.2399 54.1475 55.2499 55.7675 53.9299C57.0275 52.9099 58.2775 51.8799 59.5175 50.8299C60.5975 49.9199 61.8275 49.4399 63.2375 49.3299C64.9675 49.1899 66.6975 49.0399 68.4175 48.7999C69.9875 48.5799 71.1475 47.3999 71.3775 45.8199C71.5675 44.5399 71.7275 43.2499 71.7675 41.9699C71.8375 39.6899 72.4975 37.7099 74.1275 36.0399C75.0275 35.1199 75.7875 34.0599 76.5975 33.0599C77.1675 32.3699 77.4775 31.5999 77.4675 30.6799Z" fill="white" stroke="black" stroke-width="1.3" stroke-miterlimit="10"/>
<path d="M53.2883 48.9799C63.3951 48.9799 71.5883 40.7867 71.5883 30.6799C71.5883 20.5731 63.3951 12.3799 53.2883 12.3799C43.1815 12.3799 34.9883 20.5731 34.9883 30.6799C34.9883 40.7867 43.1815 48.9799 53.2883 48.9799Z" fill="white" stroke="black" stroke-width="1.3" stroke-miterlimit="10" stroke-linecap="round" stroke-linejoin="round"/>
<path d="M53.1873 35.48C53.3973 35.48 53.8273 35.48 54.0273 35.69C60.9173 40.91 60.9173 40.91 60.9173 40.91C58.1973 31.93 58.1973 31.93 58.1973 31.93C58.1973 31.52 58.1973 31.09 58.6073 30.67C65.2973 24.19 65.2973 24.19 65.2973 24.19C56.9373 24.19 56.9373 24.19 56.9373 24.19C56.5273 24.19 55.9073 23.78 55.9073 23.36C53.1873 17.29 53.1873 17.29 53.1873 17.29C50.6873 23.36 50.6873 23.36 50.6873 23.36C50.4773 23.77 49.8473 24.19 49.4273 24.19C41.2773 24.19 41.2773 24.19 41.2773 24.19C47.7573 30.67 47.7573 30.67 47.7573 30.67C48.1673 31.08 48.1673 31.51 48.1673 31.93C45.4573 40.91 45.4573 40.91 45.4573 40.91C52.3473 35.69 52.3473 35.69 52.3473 35.69C52.7673 35.48 52.9773 35.48 53.1873 35.48Z" fill="url(#paint1_radial_1102_1894)"/>
<path d="M121.918 40.5302H128.018V42.6102H119.348V31.4102H127.808V33.4902H121.918V40.5302ZM121.718 35.9202H127.108V37.9402H121.718V35.9202Z" fill="black"/>
<path d="M132.487 42.7401C131.817 42.7401 131.237 42.6201 130.757 42.4001C130.277 42.1701 129.907 41.8601 129.657 41.4601C129.397 41.0701 129.277 40.6201 129.277 40.1301C129.277 39.6201 129.397 39.1701 129.657 38.7901C129.917 38.4101 130.307 38.1001 130.847 37.8901C131.387 37.6701 132.097 37.5601 132.977 37.5601H135.267V39.0201H133.247C132.657 39.0201 132.257 39.1201 132.037 39.3101C131.817 39.5001 131.707 39.7401 131.707 40.0301C131.707 40.3501 131.827 40.6001 132.087 40.7901C132.337 40.9801 132.677 41.0701 133.117 41.0701C133.537 41.0701 133.907 40.9701 134.237 40.7701C134.567 40.5701 134.807 40.2801 134.957 39.9001L135.337 41.0501C135.157 41.6001 134.827 42.0301 134.347 42.3101C133.867 42.5901 133.247 42.7401 132.487 42.7401ZM135.117 42.6101V40.9301L134.957 40.5601V37.5501C134.957 37.0201 134.797 36.6001 134.467 36.3001C134.137 36.0001 133.647 35.8501 132.967 35.8501C132.507 35.8501 132.057 35.9201 131.617 36.0701C131.177 36.2101 130.797 36.4101 130.487 36.6501L129.587 34.9101C130.057 34.5801 130.617 34.3201 131.287 34.1401C131.947 33.9601 132.617 33.8701 133.307 33.8701C134.617 33.8701 135.637 34.1801 136.367 34.8001C137.097 35.4201 137.457 36.3801 137.457 37.7001V42.6101H135.117Z" fill="black"/>
<path d="M139.707 42.6099V33.9999H142.087V36.4299L141.747 35.7299C142.007 35.1199 142.417 34.6599 142.977 34.3499C143.547 34.0399 144.227 33.8799 145.037 33.8799V36.1799C144.927 36.1699 144.837 36.1599 144.747 36.1599C144.657 36.1499 144.567 36.1499 144.477 36.1499C143.797 36.1499 143.247 36.3399 142.817 36.7299C142.397 37.1199 142.187 37.7199 142.187 38.5499V42.6099H139.707Z" fill="black"/>
<path d="M146.539 42.6102V30.7402H149.039V42.6102H146.539Z" fill="black"/>
<path d="M152.439 45.84C151.989 45.84 151.549 45.77 151.109 45.63C150.669 45.49 150.319 45.3 150.039 45.05L150.949 43.27C151.139 43.44 151.359 43.57 151.609 43.67C151.859 43.77 152.109 43.81 152.349 43.81C152.699 43.81 152.979 43.73 153.189 43.56C153.399 43.39 153.589 43.12 153.759 42.74L154.209 41.68L154.399 41.41L157.499 34H159.899L156.009 43.14C155.729 43.83 155.419 44.38 155.059 44.77C154.699 45.16 154.309 45.44 153.879 45.6C153.439 45.76 152.969 45.84 152.439 45.84ZM153.919 42.94L150.079 34H152.659L155.639 41.2L153.919 42.94Z" fill="black"/>
<path d="M122.027 62.3807L118.367 51.1807H121.057L124.237 61.1007H122.897L126.227 51.1807H128.627L131.827 61.1007H130.527L133.787 51.1807H136.267L132.607 62.3807H129.827L126.997 53.6807H127.737L124.827 62.3807H122.027Z" fill="black"/>
<path d="M139.546 62.5106C138.876 62.5106 138.296 62.3906 137.816 62.1706C137.336 61.9406 136.966 61.6306 136.716 61.2306C136.456 60.8406 136.336 60.3906 136.336 59.9006C136.336 59.3906 136.456 58.9406 136.716 58.5606C136.976 58.1806 137.366 57.8706 137.906 57.6606C138.446 57.4406 139.156 57.3306 140.036 57.3306H142.326V58.7906H140.306C139.716 58.7906 139.316 58.8906 139.096 59.0806C138.876 59.2706 138.766 59.5106 138.766 59.8006C138.766 60.1206 138.886 60.3706 139.146 60.5606C139.396 60.7506 139.736 60.8406 140.176 60.8406C140.596 60.8406 140.966 60.7406 141.296 60.5406C141.626 60.3406 141.866 60.0506 142.016 59.6706L142.396 60.8206C142.216 61.3706 141.886 61.8006 141.406 62.0806C140.916 62.3706 140.306 62.5106 139.546 62.5106ZM142.166 62.3806V60.7006L142.006 60.3306V57.3206C142.006 56.7906 141.846 56.3706 141.516 56.0706C141.186 55.7706 140.696 55.6206 140.016 55.6206C139.556 55.6206 139.106 55.6906 138.666 55.8406C138.226 55.9806 137.846 56.1806 137.536 56.4206L136.636 54.6806C137.106 54.3506 137.666 54.0906 138.336 53.9106C138.996 53.7306 139.666 53.6406 140.356 53.6406C141.666 53.6406 142.686 53.9506 143.416 54.5706C144.146 55.1906 144.506 56.1506 144.506 57.4706V62.3806H142.166Z" fill="black"/>
<path d="M146.758 62.3804V53.7704H149.138V56.2004L148.798 55.5004C149.058 54.8904 149.468 54.4304 150.028 54.1204C150.598 53.8104 151.278 53.6504 152.088 53.6504V55.9504C151.978 55.9404 151.888 55.9304 151.798 55.9304C151.708 55.9204 151.618 55.9204 151.528 55.9204C150.848 55.9204 150.298 56.1104 149.868 56.5004C149.448 56.8904 149.238 57.4904 149.238 58.3204V62.3804H146.758Z" fill="black"/>
<path d="M158.828 53.6504C159.508 53.6504 160.118 53.7904 160.658 54.0604C161.198 54.3304 161.618 54.7504 161.928 55.3104C162.238 55.8704 162.388 56.5904 162.388 57.4604V62.3904H159.888V57.8504C159.888 57.1604 159.738 56.6404 159.428 56.3104C159.118 55.9804 158.698 55.8104 158.138 55.8104C157.748 55.8104 157.388 55.8904 157.078 56.0604C156.758 56.2304 156.518 56.4804 156.338 56.8204C156.158 57.1604 156.078 57.6004 156.078 58.1304V62.3904H153.578V53.7804H155.958V56.1604L155.508 55.4404C155.818 54.8604 156.258 54.4204 156.838 54.1104C157.438 53.8004 158.088 53.6504 158.828 53.6504Z" fill="black"/>
<path d="M165.898 52.57C165.438 52.57 165.068 52.44 164.778 52.17C164.488 51.9 164.348 51.57 164.348 51.18C164.348 50.79 164.488 50.45 164.778 50.19C165.068 49.93 165.438 49.79 165.898 49.79C166.358 49.79 166.728 49.91 167.018 50.17C167.308 50.42 167.448 50.74 167.448 51.14C167.448 51.56 167.308 51.9 167.028 52.17C166.748 52.44 166.368 52.57 165.898 52.57ZM164.648 62.38V53.77H167.148V62.38H164.648Z" fill="black"/>
<path d="M174.695 53.6504C175.375 53.6504 175.985 53.7904 176.525 54.0604C177.065 54.3304 177.485 54.7504 177.795 55.3104C178.105 55.8704 178.255 56.5904 178.255 57.4604V62.3904H175.755V57.8504C175.755 57.1604 175.605 56.6404 175.295 56.3104C174.985 55.9804 174.565 55.8104 174.005 55.8104C173.615 55.8104 173.255 55.8904 172.945 56.0604C172.625 56.2304 172.385 56.4804 172.205 56.8204C172.025 57.1604 171.945 57.6004 171.945 58.1304V62.3904H169.445V53.7804H171.825V56.1604L171.375 55.4404C171.685 54.8604 172.125 54.4204 172.705 54.1104C173.305 53.8004 173.965 53.6504 174.695 53.6504Z" fill="black"/>
<path d="M184.245 61.9704C183.445 61.9704 182.725 61.8004 182.075 61.4504C181.425 61.1004 180.915 60.6204 180.525 59.9904C180.135 59.3604 179.945 58.6404 179.945 57.8104C179.945 56.9704 180.135 56.2304 180.525 55.6104C180.915 54.9904 181.435 54.5004 182.075 54.1604C182.715 53.8204 183.445 53.6504 184.245 53.6504C184.965 53.6504 185.615 53.8004 186.165 54.0904C186.715 54.3804 187.155 54.8404 187.465 55.4504C187.775 56.0604 187.925 56.8504 187.925 57.8104C187.925 58.7604 187.765 59.5404 187.465 60.1504C187.155 60.7604 186.725 61.2204 186.165 61.5204C185.615 61.8204 184.975 61.9704 184.245 61.9704ZM184.635 65.6104C183.825 65.6104 183.045 65.5104 182.295 65.3104C181.545 65.1104 180.915 64.8204 180.415 64.4204L181.405 62.6304C181.765 62.9304 182.225 63.1704 182.785 63.3404C183.345 63.5204 183.895 63.6004 184.445 63.6004C185.335 63.6004 185.975 63.4004 186.375 63.0104C186.775 62.6204 186.975 62.0304 186.975 61.2504V59.9504L187.135 57.7904L187.105 55.6104V53.7504H189.475V60.9204C189.475 62.5204 189.055 63.7004 188.225 64.4604C187.385 65.2404 186.185 65.6104 184.635 65.6104ZM184.745 59.9204C185.185 59.9204 185.575 59.8304 185.915 59.6604C186.255 59.4804 186.525 59.2404 186.715 58.9204C186.905 58.6004 187.005 58.2304 187.005 57.8204C187.005 57.3904 186.905 57.0204 186.715 56.7104C186.525 56.4004 186.255 56.1504 185.915 55.9704C185.575 55.7904 185.185 55.7104 184.745 55.7104C184.305 55.7104 183.915 55.8004 183.575 55.9704C183.235 56.1504 182.965 56.3904 182.765 56.7104C182.565 57.0304 182.465 57.4004 182.465 57.8204C182.465 58.2404 182.565 58.6004 182.765 58.9204C182.965 59.2404 183.235 59.4904 183.575 59.6604C183.915 59.8304 184.305 59.9204 184.745 59.9204Z" fill="black"/>
</g>
<defs>
<radialGradient id="paint0_radial_1102_1894" cx="0" cy="0" r="1" gradientUnits="userSpaceOnUse" gradientTransform="translate(-21.0479 -21.1019) scale(184.62 184.62)">
<stop offset="0.3482" stop-color="#F37022"/>
<stop offset="0.4212" stop-color="#FF8635"/>
<stop offset="0.5047" stop-color="#FFA56A"/>
<stop offset="0.5894" stop-color="#FFC197"/>
<stop offset="0.6735" stop-color="#FFD7BD"/>
<stop offset="0.7569" stop-color="#FFE9DA"/>
<stop offset="0.8396" stop-color="#FFF5EE"/>
<stop offset="0.921" stop-color="#FFFDFB"/>
<stop offset="1" stop-color="white"/>
</radialGradient>
<radialGradient id="paint1_radial_1102_1894" cx="0" cy="0" r="1" gradientUnits="userSpaceOnUse" gradientTransform="translate(38.2862 -27.7483) scale(151.907 151.907)">
<stop offset="0.3586" stop-color="#F37022"/>
<stop offset="0.4212" stop-color="#FF8635"/>
<stop offset="0.5047" stop-color="#FFA56A"/>
<stop offset="0.5894" stop-color="#FFC197"/>
<stop offset="0.6735" stop-color="#FFD7BD"/>
<stop offset="0.7569" stop-color="#FFE9DA"/>
<stop offset="0.8396" stop-color="#FFF5EE"/>
<stop offset="0.921" stop-color="#FFFDFB"/>
<stop offset="1" stop-color="white"/>
</radialGradient>
<clipPath id="clip0_1102_1894">
<rect width="216" height="93" fill="white"/>
</clipPath>
</defs>
</svg>
