<svg width="216" height="93" viewBox="0 0 216 93" fill="none" xmlns="http://www.w3.org/2000/svg">
<g clip-path="url(#clip0_1102_1866)">
<path d="M215.868 0.450195H-0.171875V92.7902H215.868V0.450195Z" fill="white"/>
<path d="M110.34 53.0203V41.8203H112.93V53.0203H110.34Z" fill="black"/>
<path d="M115.09 49.5205V47.5205H119.62V49.5205H115.09Z" fill="black"/>
<path d="M132.608 44.2907C133.288 44.2907 133.898 44.4307 134.428 44.7007C134.958 44.9707 135.368 45.3907 135.678 45.9507C135.978 46.5107 136.138 47.2307 136.138 48.1007V53.0307H133.638V48.4907C133.638 47.8007 133.498 47.2807 133.208 46.9507C132.918 46.6207 132.518 46.4507 131.988 46.4507C131.628 46.4507 131.298 46.5307 131.008 46.7007C130.718 46.8707 130.498 47.1107 130.338 47.4407C130.178 47.7707 130.098 48.1907 130.098 48.7007V53.0207H127.598V48.4807C127.598 47.7907 127.458 47.2707 127.178 46.9407C126.898 46.6107 126.488 46.4407 125.968 46.4407C125.608 46.4407 125.278 46.5207 124.988 46.6907C124.698 46.8607 124.478 47.1007 124.318 47.4307C124.158 47.7607 124.078 48.1807 124.078 48.6907V53.0107H121.578V44.4007H123.958V46.7507L123.508 46.0607C123.808 45.4707 124.228 45.0307 124.778 44.7207C125.328 44.4207 125.958 44.2607 126.658 44.2607C127.448 44.2607 128.138 44.4607 128.728 44.8607C129.318 45.2607 129.708 45.8707 129.908 46.6907L129.028 46.4507C129.318 45.7807 129.778 45.2407 130.408 44.8507C131.058 44.4907 131.788 44.2907 132.608 44.2907Z" fill="black"/>
<path d="M141.998 53.1499C141.288 53.1499 140.648 53.0099 140.088 52.7299C139.528 52.4499 139.088 52.0299 138.788 51.4599C138.478 50.8899 138.328 50.1599 138.328 49.2799V44.4199H140.828V48.9199C140.828 49.6299 140.978 50.1599 141.288 50.4999C141.588 50.8399 142.018 50.9999 142.578 50.9999C142.958 50.9999 143.308 50.9199 143.598 50.7499C143.898 50.5799 144.128 50.3299 144.298 49.9799C144.468 49.6299 144.558 49.1999 144.558 48.6799V44.4199H147.058V53.0299H144.688V50.6599L145.118 51.3499C144.828 51.9499 144.408 52.3999 143.848 52.6999C143.278 52.9999 142.668 53.1499 141.998 53.1499Z" fill="black"/>
<path d="M149.359 53.0204V41.1504H151.859V53.0204H149.359Z" fill="black"/>
<path d="M156.839 53.1503C156.169 53.1503 155.589 53.0303 155.109 52.8103C154.629 52.5803 154.259 52.2703 154.009 51.8703C153.749 51.4803 153.629 51.0303 153.629 50.5403C153.629 50.0303 153.749 49.5803 154.009 49.2003C154.269 48.8203 154.659 48.5103 155.199 48.3003C155.739 48.0803 156.449 47.9703 157.329 47.9703H159.619V49.4303H157.599C157.009 49.4303 156.609 49.5303 156.389 49.7203C156.169 49.9103 156.059 50.1503 156.059 50.4403C156.059 50.7603 156.179 51.0103 156.439 51.2003C156.689 51.3903 157.029 51.4803 157.469 51.4803C157.889 51.4803 158.259 51.3803 158.589 51.1803C158.919 50.9803 159.159 50.6903 159.309 50.3103L159.689 51.4603C159.509 52.0103 159.179 52.4403 158.699 52.7203C158.209 53.0103 157.589 53.1503 156.839 53.1503ZM159.459 53.0203V51.3403L159.299 50.9703V47.9603C159.299 47.4303 159.139 47.0103 158.809 46.7103C158.479 46.4103 157.989 46.2603 157.309 46.2603C156.849 46.2603 156.399 46.3303 155.959 46.4803C155.519 46.6203 155.139 46.8203 154.829 47.0603L153.929 45.3203C154.399 44.9903 154.959 44.7303 155.629 44.5503C156.289 44.3703 156.959 44.2803 157.649 44.2803C158.959 44.2803 159.979 44.5903 160.709 45.2103C161.439 45.8303 161.799 46.7903 161.799 48.1103V53.0203H159.459Z" fill="black"/>
<path d="M163.031 46.5307V44.6107H169.001V46.5307H163.031ZM167.571 53.1507C166.561 53.1507 165.771 52.8907 165.201 52.3707C164.631 51.8507 164.351 51.0807 164.351 50.0607V42.5107H166.851V50.0307C166.851 50.3907 166.951 50.6707 167.141 50.8707C167.331 51.0707 167.591 51.1707 167.921 51.1707C168.311 51.1707 168.651 51.0607 168.931 50.8507L169.601 52.6107C169.341 52.7907 169.041 52.9307 168.681 53.0207C168.331 53.1107 167.961 53.1507 167.571 53.1507Z" fill="black"/>
<path d="M174.842 53.1505C173.922 53.1505 173.112 52.9605 172.402 52.5705C171.692 52.1905 171.132 51.6605 170.722 50.9905C170.312 50.3205 170.102 49.5605 170.102 48.7105C170.102 47.8505 170.312 47.0805 170.722 46.4105C171.132 45.7405 171.692 45.2205 172.402 44.8405C173.112 44.4605 173.922 44.2705 174.842 44.2705C175.752 44.2705 176.562 44.4605 177.272 44.8405C177.982 45.2205 178.542 45.7405 178.952 46.4005C179.362 47.0605 179.562 47.8305 179.562 48.7005C179.562 49.5505 179.362 50.3105 178.952 50.9805C178.542 51.6505 177.982 52.1705 177.272 52.5605C176.562 52.9505 175.742 53.1505 174.842 53.1505ZM174.842 51.1005C175.262 51.1005 175.632 51.0005 175.962 50.8105C176.292 50.6205 176.552 50.3405 176.742 49.9905C176.932 49.6305 177.032 49.2105 177.032 48.7205C177.032 48.2205 176.932 47.7905 176.742 47.4405C176.552 47.0905 176.292 46.8205 175.962 46.6205C175.632 46.4305 175.262 46.3305 174.842 46.3305C174.422 46.3305 174.052 46.4305 173.722 46.6205C173.392 46.8105 173.132 47.0805 172.932 47.4405C172.732 47.7905 172.632 48.2205 172.632 48.7205C172.632 49.2105 172.732 49.6405 172.932 49.9905C173.132 50.3405 173.392 50.6205 173.722 50.8105C174.052 51.0105 174.422 51.1005 174.842 51.1005Z" fill="black"/>
<path d="M181.219 53.02V44.41H183.599V46.84L183.259 46.14C183.519 45.53 183.929 45.07 184.489 44.76C185.059 44.45 185.739 44.29 186.549 44.29V46.59C186.439 46.58 186.349 46.57 186.259 46.57C186.169 46.56 186.079 46.56 185.989 46.56C185.309 46.56 184.759 46.75 184.329 47.14C183.909 47.53 183.699 48.13 183.699 48.96V53.02H181.219Z" fill="black"/>
<path d="M95.2558 71.05H11.3058C10.2658 71.05 9.42578 70.21 9.42578 69.17V14.13C9.42578 13.09 10.2658 12.25 11.3058 12.25H95.2558C96.2958 12.25 97.1358 13.09 97.1358 14.13V69.17C97.1358 70.2 96.2958 71.05 95.2558 71.05Z" fill="url(#paint0_radial_1102_1866)"/>
<path d="M99.6767 76.6999C99.1467 76.6999 98.3467 76.6999 98.3467 76.6999H64.4967C64.4967 76.6999 63.2167 76.6599 62.7467 77.3799C62.5367 77.7099 61.8667 77.8899 61.4067 77.8899C58.6967 77.9099 47.8667 77.9099 45.1567 77.8899C44.6967 77.8899 44.0267 77.7099 43.8167 77.3799C43.3467 76.6499 42.0667 76.6999 42.0667 76.6999H8.21672C8.21672 76.6999 7.41672 76.6999 6.88672 76.6999C6.88672 77.2299 6.88672 77.5999 6.88672 77.9699C6.88672 80.3299 7.02672 80.4699 9.42672 80.4699C26.1267 80.4699 80.4267 80.4699 97.1267 80.4699C99.5267 80.4699 99.6667 80.3299 99.6667 77.9699C99.6767 77.5999 99.6767 77.2299 99.6767 76.6999Z" stroke="black" stroke-width="1.3" stroke-miterlimit="10" stroke-linecap="round" stroke-linejoin="round"/>
<path d="M54.6246 25.5503C54.5846 26.0603 54.5346 26.3703 54.5346 26.6803C54.5346 28.9003 54.5646 31.1203 54.5246 33.3403C54.5046 34.1403 54.7346 34.4303 55.5646 34.4203C57.9646 34.3803 60.3646 34.4203 62.7646 34.4203C64.0446 34.4203 65.1346 34.8203 65.7046 36.0203C66.2746 37.2303 65.8746 38.3103 65.0546 39.3003C63.9046 40.6903 64.0246 42.5203 65.2946 43.6903C66.4546 44.7603 68.3246 44.7403 69.5046 43.6503C70.7446 42.5003 70.8646 40.6903 69.7146 39.3403C68.8746 38.3503 68.4846 37.2603 69.0146 36.0703C69.5846 34.7803 70.7546 34.4203 72.1046 34.4303C74.7446 34.4503 77.3746 34.4203 80.0146 34.4503C80.7046 34.4603 81.0146 34.3003 81.0146 33.5203C80.9846 25.8803 81.0046 18.2403 80.9946 10.6003C80.9946 8.77031 80.0746 7.84031 78.2646 7.84031C70.6846 7.83031 63.1046 7.84031 55.5246 7.82031C54.8046 7.82031 54.5346 8.01031 54.5446 8.77031C54.5846 11.3503 54.5546 13.9203 54.5646 16.5003C54.5646 16.7703 54.6246 17.0303 54.6646 17.3503C58.4746 15.2403 60.9046 15.3403 62.9446 17.6103C64.8046 19.6803 65.0046 22.6803 63.4146 24.9003C62.6346 26.0003 61.5846 26.7503 60.2746 27.1003C58.1946 27.6403 56.3746 27.0103 54.6246 25.5503Z" fill="white" stroke="black" stroke-width="1.3" stroke-miterlimit="10" stroke-linecap="round" stroke-linejoin="round"/>
<path d="M43.0347 34.18C43.5447 34.22 43.8547 34.27 44.1647 34.27C46.3847 34.27 48.6047 34.24 50.8247 34.28C51.6247 34.3 51.9147 34.07 51.9047 33.24C51.8647 30.84 51.9047 28.44 51.9047 26.04C51.9047 24.76 52.3047 23.67 53.5047 23.1C54.7147 22.53 55.7947 22.93 56.7847 23.75C58.1747 24.9 60.0047 24.78 61.1747 23.51C62.2447 22.35 62.2247 20.48 61.1347 19.3C59.9847 18.06 58.1747 17.94 56.8247 19.09C55.8347 19.93 54.7447 20.32 53.5547 19.79C52.2647 19.22 51.9047 18.05 51.9147 16.7C51.9347 14.06 51.9047 11.43 51.9347 8.79004C51.9447 8.10004 51.7847 7.79004 51.0047 7.79004C43.3647 7.82004 35.7247 7.80004 28.0847 7.81004C26.2547 7.81004 25.3247 8.73004 25.3247 10.54C25.3147 18.12 25.3247 25.7 25.3047 33.28C25.3047 34 25.4947 34.27 26.2547 34.26C28.8347 34.22 31.4047 34.25 33.9847 34.24C34.2547 34.24 34.5147 34.18 34.8347 34.14C32.7247 30.33 32.8247 27.9 35.0947 25.86C37.1647 24 40.1647 23.8 42.3847 25.39C43.4847 26.17 44.2347 27.22 44.5847 28.53C45.1347 30.61 44.5047 32.42 43.0347 34.18Z" stroke="black" stroke-width="1.3" stroke-miterlimit="10" stroke-linecap="round" stroke-linejoin="round"/>
<path d="M51.6752 46.1997C51.7152 45.6897 51.7652 45.3797 51.7652 45.0697C51.7652 42.8497 51.7352 40.6297 51.7752 38.4097C51.7952 37.6097 51.5652 37.3197 50.7352 37.3297C48.3352 37.3697 45.9352 37.3297 43.5352 37.3297C42.2552 37.3297 41.1652 36.9297 40.5952 35.7297C40.0252 34.5197 40.4252 33.4397 41.2452 32.4497C42.3952 31.0597 42.2752 29.2297 41.0052 28.0597C39.8452 26.9897 37.9752 27.0097 36.7952 28.0997C35.5552 29.2497 35.4352 31.0597 36.5852 32.4097C37.4252 33.3997 37.8152 34.4897 37.2852 35.6797C36.7152 36.9697 35.5452 37.3297 34.1952 37.3197C31.5552 37.2997 28.9252 37.3297 26.2852 37.2997C25.5952 37.2897 25.2852 37.4497 25.2852 38.2297C25.3152 45.8697 25.2952 53.5097 25.3052 61.1497C25.3052 62.9797 26.2252 63.9097 28.0352 63.9097C35.6152 63.9197 43.1952 63.9097 50.7752 63.9297C51.4952 63.9297 51.7652 63.7397 51.7552 62.9797C51.7152 60.3997 51.7452 57.8297 51.7352 55.2497C51.7352 54.9797 51.6752 54.7197 51.6352 54.3997C47.8252 56.5097 45.3952 56.4097 43.3552 54.1397C41.4952 52.0697 41.2952 49.0697 42.8852 46.8497C43.6652 45.7497 44.7152 44.9997 46.0252 44.6497C48.1052 44.1097 49.9152 44.7397 51.6752 46.1997Z" stroke="black" stroke-width="1.3" stroke-miterlimit="10" stroke-linecap="round" stroke-linejoin="round"/>
<path d="M63.5239 37.5699C63.0139 37.5299 62.7039 37.4799 62.3939 37.4799C60.1739 37.4799 57.9539 37.5099 55.7339 37.4699C54.9339 37.4499 54.6439 37.6799 54.6539 38.5099C54.6939 40.9099 54.6539 43.3099 54.6539 45.7099C54.6539 46.9899 54.2539 48.0799 53.0539 48.6499C51.8439 49.2199 50.7639 48.8199 49.7739 47.9999C48.3839 46.8499 46.5539 46.9699 45.3839 48.2399C44.3139 49.3999 44.3339 51.2699 45.4239 52.4499C46.5739 53.6899 48.3839 53.8099 49.7339 52.6599C50.7239 51.8199 51.8139 51.4299 53.0039 51.9599C54.2939 52.5299 54.6539 53.6999 54.6439 55.0499C54.6239 57.6899 54.6539 60.3199 54.6239 62.9599C54.6139 63.6499 54.7739 63.9599 55.5539 63.9599C63.1939 63.9299 70.8339 63.9499 78.4739 63.9399C80.3039 63.9399 81.2339 63.0199 81.2339 61.2099C81.2439 53.6299 81.2339 46.0499 81.2539 38.4699C81.2539 37.7499 81.0639 37.4799 80.3039 37.4899C77.7239 37.5299 75.1539 37.4999 72.5739 37.5099C72.3039 37.5099 72.0439 37.5699 71.7239 37.6099C73.8339 41.4199 73.7339 43.8499 71.4639 45.8899C69.3939 47.7499 66.3939 47.9499 64.1739 46.3599C63.0739 45.5799 62.3239 44.5299 61.9739 43.2199C61.4339 41.1299 62.0639 39.3199 63.5239 37.5699Z" stroke="black" stroke-width="1.3" stroke-miterlimit="10" stroke-linecap="round" stroke-linejoin="round"/>
<path d="M97.1367 17.1699V24.9099" stroke="black" stroke-width="1.6" stroke-miterlimit="10" stroke-linecap="round" stroke-linejoin="round"/>
<path d="M97.1367 17.1699V24.9099" stroke="black" stroke-width="1.3" stroke-miterlimit="10" stroke-linecap="round" stroke-linejoin="round"/>
<path d="M93.2656 21.04H101.006" stroke="black" stroke-width="1.3" stroke-miterlimit="10" stroke-linecap="round" stroke-linejoin="round"/>
<path d="M97.1362 29.0196C101.543 29.0196 105.116 25.4468 105.116 21.0396C105.116 16.6323 101.543 13.0596 97.1362 13.0596C92.729 13.0596 89.1562 16.6323 89.1562 21.0396C89.1562 25.4468 92.729 29.0196 97.1362 29.0196Z" stroke="black" stroke-width="1.3" stroke-miterlimit="10" stroke-linecap="round" stroke-linejoin="round"/>
</g>
<defs>
<radialGradient id="paint0_radial_1102_1866" cx="0" cy="0" r="1" gradientUnits="userSpaceOnUse" gradientTransform="translate(-25.2847 -12.7098) scale(169.083 169.083)">
<stop offset="0.3482" stop-color="#F37022"/>
<stop offset="0.4212" stop-color="#FF8635"/>
<stop offset="0.5047" stop-color="#FFA56A"/>
<stop offset="0.5894" stop-color="#FFC197"/>
<stop offset="0.6735" stop-color="#FFD7BD"/>
<stop offset="0.7569" stop-color="#FFE9DA"/>
<stop offset="0.8396" stop-color="#FFF5EE"/>
<stop offset="0.921" stop-color="#FFFDFB"/>
<stop offset="1" stop-color="white"/>
</radialGradient>
<clipPath id="clip0_1102_1866">
<rect width="216" height="93" fill="white"/>
</clipPath>
</defs>
</svg>
