<svg width="216" height="93" viewBox="0 0 216 93" fill="none" xmlns="http://www.w3.org/2000/svg">
<g clip-path="url(#clip0_1102_1828)">
<path d="M215.868 0.450195H-0.171875V92.7902H215.868V0.450195Z" fill="white"/>
<path d="M122.34 53.0203V41.8203H124.93V53.0203H122.34Z" fill="black"/>
<path d="M132.641 44.29C133.321 44.29 133.931 44.43 134.471 44.7C135.011 44.97 135.431 45.39 135.741 45.95C136.051 46.51 136.201 47.23 136.201 48.1V53.03H133.701V48.49C133.701 47.8 133.551 47.28 133.241 46.95C132.941 46.62 132.511 46.45 131.951 46.45C131.561 46.45 131.201 46.53 130.891 46.7C130.571 46.87 130.331 47.12 130.151 47.46C129.971 47.8 129.891 48.24 129.891 48.77V53.03H127.391V44.42H129.771V46.8L129.321 46.08C129.631 45.5 130.071 45.06 130.651 44.75C131.231 44.44 131.911 44.29 132.641 44.29Z" fill="black"/>
<path d="M138.641 53.0203V41.8203H141.221V53.0203H138.641ZM140.971 50.4603L140.831 47.4703L146.191 41.8203H149.071L144.241 47.0203L142.801 48.5603L140.971 50.4603ZM146.311 53.0203L142.331 48.1403L144.031 46.3003L149.341 53.0203H146.311Z" fill="black"/>
<path d="M152.769 53.1503C152.099 53.1503 151.519 53.0403 151.039 52.8103C150.559 52.5803 150.189 52.2703 149.939 51.8703C149.679 51.4803 149.559 51.0303 149.559 50.5403C149.559 50.0303 149.679 49.5803 149.939 49.2003C150.189 48.8203 150.589 48.5203 151.129 48.3003C151.669 48.0803 152.379 47.9703 153.259 47.9703H155.549V49.4303H153.529C152.939 49.4303 152.539 49.5303 152.319 49.7203C152.099 49.9103 151.989 50.1503 151.989 50.4403C151.989 50.7603 152.109 51.0103 152.369 51.2003C152.619 51.3903 152.959 51.4803 153.399 51.4803C153.819 51.4803 154.189 51.3803 154.519 51.1803C154.849 50.9803 155.089 50.6903 155.239 50.3103L155.619 51.4603C155.439 52.0103 155.109 52.4403 154.629 52.7203C154.149 53.0103 153.529 53.1503 152.769 53.1503ZM155.399 53.0203V51.3403L155.239 50.9703V47.9603C155.239 47.4303 155.079 47.0103 154.749 46.7103C154.419 46.4103 153.929 46.2603 153.249 46.2603C152.789 46.2603 152.339 46.3303 151.899 46.4803C151.459 46.6203 151.079 46.8203 150.769 47.0603L149.869 45.3203C150.339 44.9903 150.899 44.7303 151.569 44.5503C152.229 44.3703 152.899 44.2803 153.589 44.2803C154.899 44.2803 155.919 44.5903 156.649 45.2103C157.379 45.8303 157.739 46.7903 157.739 48.1103V53.0203H155.399Z" fill="black"/>
<path d="M158.961 46.5305V44.6105H164.931V46.5305H158.961ZM160.291 53.0205V44.2205C160.291 43.2505 160.581 42.4705 161.151 41.8905C161.731 41.3105 162.551 41.0205 163.611 41.0205C163.971 41.0205 164.321 41.0605 164.661 41.1305C165.001 41.2005 165.281 41.3205 165.521 41.4805L164.861 43.2905C164.721 43.1905 164.571 43.1205 164.401 43.0705C164.231 43.0205 164.051 42.9905 163.861 42.9905C163.501 42.9905 163.221 43.0905 163.021 43.3005C162.821 43.5105 162.721 43.8205 162.721 44.2405V45.0405L162.781 46.1105V53.0205H160.291Z" fill="black"/>
<path d="M166.34 53.0204V41.1504H168.84V53.0204H166.34ZM168.4 51.2604L168.46 48.2204L172.48 44.4104H175.46L171.6 48.3304L170.3 49.3904L168.4 51.2604ZM172.76 53.0204L169.85 49.4004L171.42 47.4604L175.79 53.0104H172.76V53.0204Z" fill="black"/>
<path d="M179.401 53.1503C178.731 53.1503 178.151 53.0403 177.671 52.8103C177.191 52.5803 176.821 52.2703 176.571 51.8703C176.311 51.4803 176.191 51.0303 176.191 50.5403C176.191 50.0303 176.311 49.5803 176.571 49.2003C176.821 48.8203 177.221 48.5203 177.761 48.3003C178.301 48.0803 179.011 47.9703 179.891 47.9703H182.181V49.4303H180.161C179.571 49.4303 179.171 49.5303 178.951 49.7203C178.731 49.9103 178.621 50.1503 178.621 50.4403C178.621 50.7603 178.741 51.0103 179.001 51.2003C179.251 51.3903 179.591 51.4803 180.031 51.4803C180.451 51.4803 180.821 51.3803 181.151 51.1803C181.481 50.9803 181.721 50.6903 181.871 50.3103L182.251 51.4603C182.071 52.0103 181.741 52.4403 181.261 52.7203C180.771 53.0103 180.151 53.1503 179.401 53.1503ZM182.021 53.0203V51.3403L181.861 50.9703V47.9603C181.861 47.4303 181.701 47.0103 181.371 46.7103C181.041 46.4103 180.551 46.2603 179.871 46.2603C179.411 46.2603 178.961 46.3303 178.521 46.4803C178.081 46.6203 177.701 46.8203 177.391 47.0603L176.491 45.3203C176.961 44.9903 177.521 44.7303 178.191 44.5503C178.851 44.3703 179.521 44.2803 180.211 44.2803C181.521 44.2803 182.541 44.5903 183.271 45.2103C184.001 45.8303 184.361 46.7903 184.361 48.1103V53.0203H182.021Z" fill="black"/>
<path d="M95.2558 69.3906H11.3058C10.2658 69.3906 9.42578 68.5506 9.42578 67.5106V12.4806C9.42578 11.4406 10.2658 10.6006 11.3058 10.6006H95.2558C96.2958 10.6006 97.1358 11.4406 97.1358 12.4806V67.5206C97.1358 68.5506 96.2958 69.3906 95.2558 69.3906Z" fill="url(#paint0_radial_1102_1828)"/>
<path d="M99.6767 75.0505C99.1467 75.0505 98.3467 75.0505 98.3467 75.0505H64.4967C64.4967 75.0505 63.2167 75.0105 62.7467 75.7305C62.5367 76.0605 61.8667 76.2405 61.4067 76.2405C58.6967 76.2605 47.8667 76.2605 45.1567 76.2405C44.6967 76.2405 44.0267 76.0605 43.8167 75.7305C43.3467 75.0005 42.0667 75.0505 42.0667 75.0505H8.21672C8.21672 75.0505 7.41672 75.0505 6.88672 75.0505C6.88672 75.5805 6.88672 75.9505 6.88672 76.3205C6.88672 78.6805 7.02672 78.8205 9.42672 78.8205C26.1267 78.8205 80.4267 78.8205 97.1267 78.8205C99.5267 78.8205 99.6667 78.6805 99.6667 76.3205C99.6767 75.9505 99.6767 75.5805 99.6767 75.0505Z" stroke="black" stroke-width="1.3" stroke-miterlimit="10" stroke-linecap="round" stroke-linejoin="round"/>
<path d="M33.0586 61.8803L39.2086 55.7304L45.3586 61.8803L55.9386 50.8604" stroke="black" stroke-width="1.3" stroke-linecap="round" stroke-linejoin="round"/>
<path d="M56.6183 56.2908L55.5783 56.2808L55.6683 51.1508L50.5483 51.4408L50.4883 50.4008L56.7183 50.0508L56.6183 56.2908Z" fill="black"/>
<path d="M97.1367 15.5205V23.2605" stroke="black" stroke-width="1.6" stroke-miterlimit="10" stroke-linecap="round" stroke-linejoin="round"/>
<path d="M97.1367 15.5205V23.2605" stroke="black" stroke-width="1.3" stroke-miterlimit="10" stroke-linecap="round" stroke-linejoin="round"/>
<path d="M93.2656 19.3906H101.006" stroke="black" stroke-width="1.3" stroke-miterlimit="10" stroke-linecap="round" stroke-linejoin="round"/>
<path d="M97.1362 27.3702C101.543 27.3702 105.116 23.7974 105.116 19.3902C105.116 14.9829 101.543 11.4102 97.1362 11.4102C92.729 11.4102 89.1562 14.9829 89.1562 19.3902C89.1562 23.7974 92.729 27.3702 97.1362 27.3702Z" stroke="black" stroke-width="1.3" stroke-miterlimit="10" stroke-linecap="round" stroke-linejoin="round"/>
<path d="M86.9348 53.1509L86.7848 53.4009C86.7848 53.4009 86.7848 53.4009 84.2348 57.6709L84.0948 57.9009L83.8548 57.7809C83.8548 57.7809 83.8548 57.7809 83.6448 57.6709C83.4348 57.5609 83.0048 57.3509 82.1548 56.9209C81.9848 56.8409 81.7548 56.7909 81.5248 56.7909C81.3048 56.7909 81.0948 56.8409 80.9448 56.9109C80.0348 57.7909 78.7748 58.4209 77.7048 58.8409H77.6948H77.6848C77.4148 58.9309 77.2748 59.0509 77.1848 59.2009C77.0948 59.3509 77.0448 59.5609 77.0448 59.8509C77.0448 59.8509 77.0448 59.8509 77.0448 61.7609V62.0509H76.7548C76.7548 62.0509 76.7548 62.0509 71.6448 62.0509H71.3548V59.8509C71.3548 59.6009 71.2748 59.4009 71.1448 59.2309C71.0148 59.0609 70.8348 58.9209 70.6648 58.8409C69.3648 58.4109 68.2948 57.7609 67.4248 57.1109L67.4048 57.1009L67.3948 57.0909C67.2148 56.9109 66.9748 56.8309 66.7248 56.8309C66.5548 56.8309 66.3848 56.8709 66.2548 56.9409C66.2448 56.9409 66.1348 57.0009 64.5548 57.8009L64.3148 57.9209L64.1748 57.6909C64.1748 57.6909 64.1748 57.6909 63.8548 57.1609C63.5348 56.6309 62.8948 55.5609 61.6148 53.4309L61.4648 53.1809L61.7048 53.0009C61.7048 53.0009 61.7048 53.0009 63.4048 51.9509L63.4148 51.9409L63.4248 51.9309C63.5448 51.8709 63.6748 51.7209 63.7648 51.5109C63.8548 51.3209 63.8948 51.0909 63.8948 50.9309C63.6848 50.2609 63.6848 49.6009 63.6848 48.9909C63.6848 48.3809 63.6848 47.7209 63.8948 47.0509C63.8948 46.8909 63.8448 46.6609 63.7648 46.4709C63.6748 46.2709 63.5448 46.1109 63.4248 46.0509L63.4148 46.0409L63.4048 46.0309C63.4048 46.0309 63.4048 46.0309 61.7048 44.9809L61.4648 44.8309L61.6148 44.5809C61.6148 44.5809 61.6148 44.5809 61.6548 44.5109C61.6948 44.4409 61.7748 44.3109 61.9348 44.0409C62.2548 43.5109 62.8948 42.4409 64.1748 40.3109L64.3148 40.0809L64.5548 40.2009C64.5548 40.2009 64.5548 40.2009 66.2548 41.0609C66.4148 41.1409 66.6348 41.1909 66.8648 41.1909C67.0848 41.1909 67.2948 41.1409 67.4448 41.0709C68.3248 40.2109 69.3848 39.5709 70.6648 39.1509C70.8448 39.0509 71.0248 38.9109 71.1548 38.7409C71.2848 38.5709 71.3648 38.3709 71.3648 38.1209C71.3648 38.1209 71.3648 38.1209 71.3648 36.2109V35.9209H71.6548C71.6548 35.9209 71.6548 35.9209 76.7648 35.9209H77.0548V36.2109C77.0548 36.2109 77.0548 36.2109 77.0548 38.1209C77.0548 38.4109 77.1048 38.6109 77.1948 38.7609C77.2848 38.9109 77.4348 39.0309 77.7048 39.1309C78.7748 39.5509 80.0448 40.1809 80.9448 41.0609C81.1048 41.1309 81.3148 41.1809 81.5248 41.1809C81.7548 41.1809 81.9848 41.1309 82.1548 41.0509C82.1848 41.0409 82.3848 40.9309 83.8548 40.1909L84.0948 40.0709L84.2348 40.3009C84.2348 40.3009 84.2348 40.3009 84.5548 40.8309C84.8748 41.3609 85.5048 42.4309 86.7848 44.5609L86.9348 44.8109L86.6848 45.0009C86.6848 45.0009 86.6848 45.0009 84.9848 46.0509L84.9748 46.0609L84.9648 46.0709C84.8548 46.1309 84.7048 46.2609 84.6048 46.4109C84.4948 46.5609 84.4348 46.7309 84.4448 46.8409L84.4748 46.9609L84.5048 47.0209V47.0909C84.5048 47.6609 84.7148 48.3109 84.7148 49.0009C84.7148 49.7009 84.5048 50.3409 84.5048 50.9109V50.9809L84.4748 51.0409L84.4448 51.1609C84.4448 51.2709 84.5048 51.4409 84.6048 51.5909C84.7048 51.7409 84.8548 51.8709 84.9648 51.9309L84.9748 51.9409L84.9848 51.9509C84.9848 51.9509 84.9848 51.9509 86.6848 53.0009L86.9348 53.1509Z" stroke="black" stroke-width="1.3" stroke-miterlimit="10" stroke-linecap="round" stroke-linejoin="round"/>
<path d="M74.1956 54.9313C77.4707 54.9313 80.1256 52.2763 80.1256 49.0013C80.1256 45.7262 77.4707 43.0713 74.1956 43.0713C70.9206 43.0713 68.2656 45.7262 68.2656 49.0013C68.2656 52.2763 70.9206 54.9313 74.1956 54.9313Z" fill="white" stroke="black" stroke-width="1.3" stroke-miterlimit="10"/>
<path d="M74.1964 50.1311C74.8205 50.1311 75.3264 49.6252 75.3264 49.0011C75.3264 48.377 74.8205 47.8711 74.1964 47.8711C73.5723 47.8711 73.0664 48.377 73.0664 49.0011C73.0664 49.6252 73.5723 50.1311 74.1964 50.1311Z" fill="black"/>
<path d="M59.8156 35.4106C59.8156 35.4106 59.8156 35.4106 56.8956 33.6006L56.8756 33.5906L56.8556 33.5806C56.6456 33.4806 56.4256 33.2106 56.2756 32.8606C56.1256 32.5306 56.0556 32.1406 56.0556 31.8606C56.4056 30.7206 56.4156 29.5806 56.4156 28.5406C56.4156 27.4906 56.4156 26.3606 56.0556 25.2206C56.0556 24.9406 56.1356 24.5606 56.2756 24.2206C56.4256 23.8706 56.6456 23.6006 56.8556 23.5006L56.8756 23.4906L56.8956 23.4806C56.8956 23.4806 56.8956 23.4806 59.8156 21.6706L60.2356 21.4106L59.9756 21.0006C59.9756 21.0006 59.9756 21.0006 59.9056 20.8906C59.8356 20.7806 59.6956 20.5506 59.4256 20.0906C58.8756 19.1706 57.7756 17.3406 55.5756 13.6806L55.3356 13.2806L54.9256 13.4906C54.9256 13.4906 54.9256 13.4906 52.0056 14.9706C51.7356 15.1106 51.3456 15.1906 50.9656 15.1906C50.5956 15.1906 50.2356 15.1106 49.9656 14.9806C48.4656 13.5006 46.6356 12.4106 44.4456 11.6806C44.1356 11.5106 43.8256 11.2706 43.6056 10.9806C43.3856 10.6806 43.2456 10.3506 43.2456 9.92063C43.2456 9.92063 43.2456 9.92062 43.2456 6.64062V6.14062H33.5156V6.64062C33.5156 9.92062 33.5156 9.92063 33.5156 9.92063C33.5156 10.3406 33.3756 10.6806 33.1556 10.9806C32.9356 11.2706 32.6256 11.5106 32.3156 11.6806C30.1256 12.4106 28.2956 13.5006 26.7956 14.9806C26.5256 15.1106 26.1656 15.1906 25.7956 15.1906C25.4056 15.1906 25.0256 15.1106 24.7556 14.9706C21.8356 13.4906 21.8356 13.4906 21.8356 13.4906L21.4256 13.2806L21.1856 13.6806C18.9856 17.3406 17.8856 19.1706 17.3356 20.0906C17.0656 20.5506 16.9256 20.7806 16.8556 20.8906C16.7656 21.0006 16.7656 21.0006 16.7656 21.0006L16.5156 21.4206L16.9356 21.6806C19.8556 23.4906 19.8556 23.4906 19.8556 23.4906L19.8756 23.5006L19.8956 23.5106C20.1056 23.6106 20.3256 23.8806 20.4756 24.2306C20.6256 24.5606 20.6956 24.9506 20.6956 25.2306C20.3456 26.3706 20.3356 27.5106 20.3356 28.5506C20.3356 29.6006 20.3356 30.7306 20.6956 31.8706C20.6956 32.1506 20.6156 32.5406 20.4756 32.8706C20.3256 33.2206 20.1056 33.4906 19.8956 33.5906L19.8756 33.6006L19.8556 33.6106C16.9356 35.4206 16.9356 35.4206 16.9356 35.4206L16.5156 35.6806L16.7656 36.1006C18.9656 39.7606 20.0656 41.5906 20.6156 42.5006C21.1656 43.4106 21.1656 43.4106 21.1656 43.4106L21.4056 43.8106L21.8156 43.6006C24.5256 42.2306 24.7256 42.1306 24.7356 42.1306C24.9656 42.0206 25.2556 41.9406 25.5456 41.9406C25.9656 41.9406 26.3756 42.0806 26.6856 42.3906L26.7056 42.4106L26.7356 42.4306C28.2256 43.5606 30.0656 44.6606 32.3056 45.4106C32.6056 45.5606 32.9156 45.7906 33.1356 46.0906C33.3556 46.3906 33.4956 46.7406 33.5056 47.1606V50.9406H43.2356V47.1606C43.2356 46.7406 43.3756 46.3906 43.6056 46.0906C43.8256 45.8006 44.1356 45.5606 44.4356 45.4106C46.6656 44.6706 48.5056 43.5606 50.0056 42.4306L50.0356 42.4106L50.0556 42.3906C50.3756 42.0706 50.7756 41.9406 51.1956 41.9406C51.4856 41.9406 51.7756 42.0106 52.0056 42.1306C52.0156 42.1406 52.2156 42.2406 54.9256 43.6006L55.3356 43.8106L55.5756 43.4106C55.5756 43.4106 55.5756 43.4106 56.1256 42.5006C56.6756 41.5806 57.7756 39.7606 59.9756 36.1006L60.2256 35.6806L59.8156 35.4106Z" fill="white" stroke="black" stroke-width="1.3" stroke-miterlimit="10" stroke-linecap="round" stroke-linejoin="round"/>
<path d="M38.3742 42.101C45.8577 42.101 51.9242 36.0344 51.9242 28.551C51.9242 21.0675 45.8577 15.001 38.3742 15.001C30.8908 15.001 24.8242 21.0675 24.8242 28.551C24.8242 36.0344 30.8908 42.101 38.3742 42.101Z" fill="white" stroke="black" stroke-width="1.3" stroke-miterlimit="10"/>
<path d="M38.3761 29.6809C39.0002 29.6809 39.5061 29.175 39.5061 28.5509C39.5061 27.9268 39.0002 27.4209 38.3761 27.4209C37.752 27.4209 37.2461 27.9268 37.2461 28.5509C37.2461 29.175 37.752 29.6809 38.3761 29.6809Z" fill="black"/>
</g>
<defs>
<radialGradient id="paint0_radial_1102_1828" cx="0" cy="0" r="1" gradientUnits="userSpaceOnUse" gradientTransform="translate(-21.0479 -23.711) scale(184.62 184.62)">
<stop offset="0.3482" stop-color="#F37022"/>
<stop offset="0.4212" stop-color="#FF8635"/>
<stop offset="0.5047" stop-color="#FFA56A"/>
<stop offset="0.5894" stop-color="#FFC197"/>
<stop offset="0.6735" stop-color="#FFD7BD"/>
<stop offset="0.7569" stop-color="#FFE9DA"/>
<stop offset="0.8396" stop-color="#FFF5EE"/>
<stop offset="0.921" stop-color="#FFFDFB"/>
<stop offset="1" stop-color="white"/>
</radialGradient>
<clipPath id="clip0_1102_1828">
<rect width="216" height="93" fill="white"/>
</clipPath>
</defs>
</svg>
