<svg width="216" height="93" viewBox="0 0 216 93" fill="none" xmlns="http://www.w3.org/2000/svg">
<g clip-path="url(#clip0_1102_1926)">
<path d="M215.868 0.450195H-0.171875V92.7902H215.868V0.450195Z" fill="white"/>
<path d="M122.34 54.2498V43.0498H124.48L129.25 50.9498H128.11L132.8 43.0498H134.93L134.96 54.2498H132.53L132.51 46.7798H132.96L129.22 53.0698H128.05L124.23 46.7798H124.77V54.2498H122.34Z" fill="black"/>
<path d="M140.101 54.3798C139.431 54.3798 138.851 54.2698 138.371 54.0398C137.891 53.8098 137.521 53.4998 137.271 53.0998C137.011 52.7098 136.891 52.2598 136.891 51.7698C136.891 51.2598 137.011 50.8098 137.271 50.4298C137.521 50.0498 137.921 49.7498 138.461 49.5298C139.001 49.3098 139.711 49.1998 140.591 49.1998H142.881V50.6598H140.861C140.271 50.6598 139.871 50.7598 139.651 50.9498C139.431 51.1398 139.321 51.3798 139.321 51.6698C139.321 51.9898 139.441 52.2398 139.701 52.4298C139.951 52.6198 140.291 52.7098 140.731 52.7098C141.151 52.7098 141.521 52.6098 141.851 52.4098C142.181 52.2098 142.421 51.9198 142.571 51.5398L142.951 52.6898C142.771 53.2398 142.441 53.6698 141.961 53.9498C141.481 54.2298 140.861 54.3798 140.101 54.3798ZM142.721 54.2498V52.5698L142.561 52.1998V49.1898C142.561 48.6598 142.401 48.2398 142.071 47.9398C141.741 47.6398 141.251 47.4898 140.571 47.4898C140.111 47.4898 139.661 47.5598 139.221 47.7098C138.781 47.8498 138.401 48.0498 138.091 48.2898L137.191 46.5498C137.661 46.2198 138.221 45.9598 138.891 45.7798C139.551 45.5998 140.221 45.5098 140.911 45.5098C142.221 45.5098 143.241 45.8198 143.971 46.4398C144.701 47.0598 145.061 48.0198 145.061 49.3398V54.2498H142.721Z" fill="black"/>
<path d="M151.648 54.38C150.668 54.38 149.808 54.19 149.068 53.8C148.328 53.42 147.758 52.89 147.348 52.22C146.938 51.55 146.738 50.79 146.738 49.94C146.738 49.08 146.938 48.31 147.338 47.64C147.738 46.97 148.288 46.45 148.978 46.07C149.668 45.69 150.458 45.5 151.328 45.5C152.168 45.5 152.928 45.68 153.608 46.04C154.288 46.4 154.818 46.91 155.218 47.58C155.608 48.25 155.808 49.04 155.808 49.97C155.808 50.07 155.798 50.18 155.788 50.3C155.778 50.42 155.768 50.54 155.758 50.64H148.768V49.18H154.448L153.488 49.61C153.488 49.16 153.398 48.77 153.218 48.44C153.038 48.11 152.788 47.85 152.468 47.66C152.148 47.47 151.778 47.38 151.348 47.38C150.918 47.38 150.548 47.47 150.218 47.66C149.888 47.85 149.638 48.11 149.458 48.44C149.278 48.78 149.188 49.17 149.188 49.63V50.01C149.188 50.48 149.288 50.89 149.498 51.25C149.708 51.61 149.998 51.88 150.378 52.07C150.758 52.26 151.198 52.35 151.718 52.35C152.178 52.35 152.578 52.28 152.928 52.14C153.278 52 153.588 51.79 153.878 51.52L155.208 52.96C154.818 53.41 154.318 53.75 153.718 53.99C153.118 54.26 152.428 54.38 151.648 54.38Z" fill="black"/>
<path d="M160.371 54.3798C159.631 54.3798 158.931 54.2898 158.251 54.1198C157.571 53.9398 157.041 53.7198 156.641 53.4598L157.471 51.6698C157.861 51.9198 158.331 52.1198 158.871 52.2698C159.411 52.4298 159.941 52.4998 160.461 52.4998C161.041 52.4998 161.441 52.4298 161.681 52.2898C161.921 52.1498 162.041 51.9598 162.041 51.7098C162.041 51.5098 161.951 51.3598 161.761 51.2498C161.571 51.1498 161.331 51.0698 161.021 51.0198C160.711 50.9698 160.371 50.9098 160.001 50.8598C159.631 50.8098 159.261 50.7398 158.891 50.6398C158.521 50.5498 158.181 50.4098 157.871 50.2298C157.561 50.0498 157.311 49.7998 157.131 49.4898C156.941 49.1798 156.851 48.7798 156.851 48.2898C156.851 47.7498 157.011 47.2698 157.321 46.8498C157.631 46.4298 158.091 46.1098 158.691 45.8698C159.291 45.6298 160.001 45.5098 160.831 45.5098C161.421 45.5098 162.011 45.5698 162.621 45.6998C163.231 45.8298 163.741 46.0098 164.141 46.2598L163.311 48.0398C162.891 47.7898 162.481 47.6298 162.051 47.5398C161.631 47.4498 161.221 47.3998 160.831 47.3998C160.281 47.3998 159.871 47.4698 159.611 47.6198C159.351 47.7698 159.231 47.9598 159.231 48.1998C159.231 48.4098 159.321 48.5698 159.511 48.6798C159.701 48.7898 159.941 48.8698 160.251 48.9398C160.561 48.9998 160.901 49.0598 161.271 49.1098C161.641 49.1598 162.011 49.2298 162.381 49.3298C162.751 49.4298 163.091 49.5598 163.401 49.7398C163.711 49.9198 163.951 50.1598 164.141 50.4598C164.331 50.7598 164.431 51.1598 164.431 51.6498C164.431 52.1798 164.271 52.6498 163.951 53.0698C163.631 53.4798 163.171 53.7998 162.571 54.0398C161.971 54.2798 161.241 54.3798 160.371 54.3798Z" fill="black"/>
<path d="M164.949 47.7502V45.8302H170.919V47.7502H164.949ZM169.489 54.3802C168.479 54.3802 167.689 54.1202 167.119 53.6002C166.549 53.0802 166.269 52.3102 166.269 51.2902V43.7402H168.769V51.2602C168.769 51.6202 168.869 51.9002 169.059 52.1002C169.249 52.3002 169.509 52.4002 169.839 52.4002C170.229 52.4002 170.569 52.2902 170.849 52.0802L171.519 53.8402C171.259 54.0202 170.959 54.1602 170.599 54.2502C170.239 54.3402 169.879 54.3802 169.489 54.3802Z" fill="black"/>
<path d="M172.93 54.2495V45.6395H175.31V48.0695L174.97 47.3695C175.23 46.7595 175.64 46.2995 176.2 45.9895C176.76 45.6795 177.45 45.5195 178.26 45.5195V47.8195C178.15 47.8095 178.06 47.7995 177.97 47.7995C177.88 47.7995 177.79 47.7895 177.7 47.7895C177.02 47.7895 176.47 47.9895 176.04 48.3695C175.62 48.7595 175.41 49.3695 175.41 50.1895V54.2495H172.93Z" fill="black"/>
<path d="M183.779 54.38C182.859 54.38 182.049 54.19 181.339 53.8C180.629 53.42 180.069 52.89 179.659 52.22C179.249 51.55 179.039 50.79 179.039 49.94C179.039 49.08 179.249 48.31 179.659 47.64C180.069 46.97 180.629 46.45 181.339 46.07C182.049 45.69 182.859 45.5 183.779 45.5C184.689 45.5 185.499 45.69 186.209 46.07C186.919 46.45 187.479 46.97 187.889 47.63C188.299 48.29 188.499 49.06 188.499 49.93C188.499 50.78 188.299 51.54 187.889 52.21C187.479 52.88 186.919 53.4 186.209 53.79C185.499 54.18 184.689 54.38 183.779 54.38ZM183.779 52.33C184.199 52.33 184.569 52.23 184.899 52.04C185.229 51.85 185.489 51.57 185.679 51.22C185.869 50.86 185.969 50.44 185.969 49.95C185.969 49.45 185.869 49.02 185.679 48.67C185.489 48.32 185.229 48.05 184.899 47.85C184.569 47.66 184.199 47.56 183.779 47.56C183.359 47.56 182.989 47.66 182.659 47.85C182.329 48.04 182.069 48.31 181.869 48.67C181.669 49.02 181.569 49.45 181.569 49.95C181.569 50.44 181.669 50.87 181.869 51.22C182.069 51.58 182.329 51.85 182.659 52.04C182.989 52.23 183.359 52.33 183.779 52.33Z" fill="black"/>
<path d="M95.7263 70.6203H11.7863C10.7463 70.6203 9.90625 69.7803 9.90625 68.7403V13.7003C9.90625 12.6603 10.7463 11.8203 11.7863 11.8203H95.7363C96.7763 11.8203 97.6163 12.6603 97.6163 13.7003V68.7403C97.6063 69.7803 96.7663 70.6203 95.7263 70.6203Z" fill="url(#paint0_radial_1102_1926)"/>
<path d="M99.3564 76.2703C98.8264 76.2703 98.0264 76.2703 98.0264 76.2703H64.1764C64.1764 76.2703 62.8964 76.2303 62.4264 76.9503C62.2164 77.2803 61.5464 77.4603 61.0864 77.4603C58.3764 77.4803 47.5464 77.4803 44.8364 77.4603C44.3764 77.4603 43.7064 77.2803 43.4964 76.9503C43.0264 76.2203 41.7464 76.2703 41.7464 76.2703H7.89641C7.89641 76.2703 7.09641 76.2703 6.56641 76.2703C6.56641 76.8003 6.56641 77.1703 6.56641 77.5403C6.56641 79.9003 6.70641 80.0403 9.10641 80.0403C25.8064 80.0403 80.1064 80.0403 96.8064 80.0403C99.2064 80.0403 99.3464 79.9003 99.3464 77.5403C99.3564 77.1703 99.3564 76.8003 99.3564 76.2703Z" stroke="black" stroke-width="1.3" stroke-miterlimit="10" stroke-linecap="round" stroke-linejoin="round"/>
<path d="M96.8164 16.7402V24.4802" stroke="black" stroke-width="1.6" stroke-miterlimit="10" stroke-linecap="round" stroke-linejoin="round"/>
<path d="M96.8164 16.7402V24.4802" stroke="black" stroke-width="1.3" stroke-miterlimit="10" stroke-linecap="round" stroke-linejoin="round"/>
<path d="M92.9453 20.6104H100.685" stroke="black" stroke-width="1.3" stroke-miterlimit="10" stroke-linecap="round" stroke-linejoin="round"/>
<path d="M96.8159 28.5899C101.223 28.5899 104.796 25.0171 104.796 20.6099C104.796 16.2027 101.223 12.6299 96.8159 12.6299C92.4087 12.6299 88.8359 16.2027 88.8359 20.6099C88.8359 25.0171 92.4087 28.5899 96.8159 28.5899Z" stroke="black" stroke-width="1.3" stroke-miterlimit="10" stroke-linecap="round" stroke-linejoin="round"/>
<path d="M91.0067 44.9201C91.0067 39.0801 86.2667 34.3401 80.4267 34.3401C79.1167 34.3401 77.8667 34.5801 76.7167 35.0101C76.9067 34.0701 77.0167 33.1001 77.0167 32.1101C77.0167 24.2801 70.6767 17.9401 62.8467 17.9401C61.7767 17.9401 60.7367 18.0601 59.7367 18.2901C56.1267 11.7801 49.1967 7.37012 41.2167 7.37012C29.5367 7.37012 20.0667 16.8401 20.0667 28.5201C20.0667 30.7701 20.4267 32.9401 21.0767 34.9801C19.9467 34.5701 18.7367 34.3501 17.4667 34.3501C11.6267 34.3501 6.88672 39.0901 6.88672 44.9301C6.88672 50.7701 11.6267 55.5101 17.4667 55.5101H74.1567C87.6267 55.5001 91.0067 49.6301 91.0067 44.9201Z" fill="white" stroke="black" stroke-width="1.3" stroke-miterlimit="10" stroke-linecap="round" stroke-linejoin="round"/>
<path d="M25.9766 29.26C25.9766 21.36 32.3766 14.96 40.2766 14.96Z" fill="white"/>
<path d="M25.9766 29.26C25.9766 21.36 32.3766 14.96 40.2766 14.96" stroke="black" stroke-width="1.3" stroke-miterlimit="10" stroke-linecap="round" stroke-linejoin="round"/>
<path d="M61.5789 30.3594L45.6289 42.3994L61.5789 54.4394" stroke="black" stroke-width="1.3" stroke-miterlimit="10" stroke-linecap="round" stroke-linejoin="round"/>
<path d="M45.6273 47.7498C48.5821 47.7498 50.9773 45.3545 50.9773 42.3998C50.9773 39.4451 48.5821 37.0498 45.6273 37.0498C42.6726 37.0498 40.2773 39.4451 40.2773 42.3998C40.2773 45.3545 42.6726 47.7498 45.6273 47.7498Z" fill="url(#paint1_radial_1102_1926)" stroke="black" stroke-width="1.3" stroke-miterlimit="10"/>
<path d="M61.5766 35.7098C64.5313 35.7098 66.9266 33.3145 66.9266 30.3598C66.9266 27.405 64.5313 25.0098 61.5766 25.0098C58.6218 25.0098 56.2266 27.405 56.2266 30.3598C56.2266 33.3145 58.6218 35.7098 61.5766 35.7098Z" fill="url(#paint2_radial_1102_1926)" stroke="black" stroke-width="1.3" stroke-miterlimit="10"/>
<path d="M61.5766 59.7898C64.5313 59.7898 66.9266 57.3946 66.9266 54.4398C66.9266 51.4851 64.5313 49.0898 61.5766 49.0898C58.6218 49.0898 56.2266 51.4851 56.2266 54.4398C56.2266 57.3946 58.6218 59.7898 61.5766 59.7898Z" fill="white" stroke="black" stroke-width="1.3" stroke-miterlimit="10" stroke-linecap="round" stroke-linejoin="round"/>
</g>
<defs>
<radialGradient id="paint0_radial_1102_1926" cx="0" cy="0" r="1" gradientUnits="userSpaceOnUse" gradientTransform="translate(-20.5764 -22.4882) scale(184.62 184.62)">
<stop offset="0.3496" stop-color="#F37022"/>
<stop offset="0.4212" stop-color="#FF8635"/>
<stop offset="0.5047" stop-color="#FFA56A"/>
<stop offset="0.5894" stop-color="#FFC197"/>
<stop offset="0.6735" stop-color="#FFD7BD"/>
<stop offset="0.7569" stop-color="#FFE9DA"/>
<stop offset="0.8396" stop-color="#FFF5EE"/>
<stop offset="0.921" stop-color="#FFFDFB"/>
<stop offset="1" stop-color="white"/>
</radialGradient>
<radialGradient id="paint1_radial_1102_1926" cx="0" cy="0" r="1" gradientUnits="userSpaceOnUse" gradientTransform="translate(40.0612 20.3859) scale(44.9783 44.9783)">
<stop offset="0.3501" stop-color="#F37022"/>
<stop offset="0.4212" stop-color="#FF8635"/>
<stop offset="0.5047" stop-color="#FFA56A"/>
<stop offset="0.5894" stop-color="#FFC197"/>
<stop offset="0.6735" stop-color="#FFD7BD"/>
<stop offset="0.7569" stop-color="#FFE9DA"/>
<stop offset="0.8396" stop-color="#FFF5EE"/>
<stop offset="0.921" stop-color="#FFFDFB"/>
<stop offset="1" stop-color="white"/>
</radialGradient>
<radialGradient id="paint2_radial_1102_1926" cx="0" cy="0" r="1" gradientUnits="userSpaceOnUse" gradientTransform="translate(40.0605 20.3859) scale(44.9783 44.9783)">
<stop offset="0.2815" stop-color="#F37022"/>
<stop offset="0.3482" stop-color="#FF6600"/>
<stop offset="0.4212" stop-color="#FF8635"/>
<stop offset="0.5047" stop-color="#FFA56A"/>
<stop offset="0.5894" stop-color="#FFC197"/>
<stop offset="0.6735" stop-color="#FFD7BD"/>
<stop offset="0.7569" stop-color="#FFE9DA"/>
<stop offset="0.8396" stop-color="#FFF5EE"/>
<stop offset="0.921" stop-color="#FFFDFB"/>
<stop offset="1" stop-color="white"/>
</radialGradient>
<clipPath id="clip0_1102_1926">
<rect width="216" height="93" fill="white"/>
</clipPath>
</defs>
</svg>
