<svg width="216" height="93" viewBox="0 0 216 93" fill="none" xmlns="http://www.w3.org/2000/svg">
<g clip-path="url(#clip0_1102_1956)">
<path d="M215.868 0.450195H-0.171875V92.7902H215.868V0.450195Z" fill="white"/>
<path d="M122.34 54.2508V43.0508H124.48L129.25 50.9508H128.11L132.8 43.0508H134.93L134.96 54.2508H132.53L132.51 46.7808H132.96L129.22 53.0708H128.05L124.23 46.7808H124.77V54.2508H122.34Z" fill="black"/>
<path d="M141.719 54.38C140.739 54.38 139.879 54.19 139.139 53.8C138.399 53.41 137.829 52.89 137.419 52.22C137.009 51.55 136.809 50.79 136.809 49.94C136.809 49.08 137.009 48.31 137.409 47.64C137.809 46.97 138.359 46.45 139.049 46.07C139.739 45.69 140.529 45.5 141.399 45.5C142.239 45.5 142.999 45.68 143.679 46.04C144.359 46.4 144.889 46.91 145.289 47.58C145.679 48.25 145.879 49.04 145.879 49.97C145.879 50.07 145.869 50.18 145.859 50.3C145.849 50.42 145.839 50.54 145.829 50.64H138.839V49.18H144.519L143.559 49.61C143.559 49.16 143.469 48.77 143.289 48.44C143.109 48.11 142.859 47.85 142.539 47.66C142.219 47.47 141.849 47.38 141.419 47.38C140.989 47.38 140.619 47.47 140.289 47.66C139.959 47.85 139.709 48.11 139.529 48.44C139.349 48.78 139.259 49.17 139.259 49.63V50.01C139.259 50.48 139.359 50.89 139.569 51.25C139.779 51.61 140.069 51.88 140.449 52.07C140.829 52.26 141.269 52.35 141.789 52.35C142.249 52.35 142.649 52.28 142.999 52.14C143.349 52 143.659 51.79 143.949 51.52L145.279 52.96C144.889 53.41 144.389 53.75 143.789 53.99C143.179 54.26 142.489 54.38 141.719 54.38Z" fill="black"/>
<path d="M146.52 47.7502V45.8302H152.49V47.7502H146.52ZM151.06 54.3802C150.05 54.3802 149.26 54.1202 148.69 53.6002C148.12 53.0802 147.84 52.3102 147.84 51.2902V43.7402H150.34V51.2602C150.34 51.6202 150.44 51.9002 150.63 52.1002C150.82 52.3002 151.08 52.4002 151.41 52.4002C151.8 52.4002 152.14 52.2902 152.42 52.0802L153.09 53.8402C152.83 54.0202 152.53 54.1602 152.17 54.2502C151.82 54.3302 151.44 54.3802 151.06 54.3802Z" fill="black"/>
<path d="M157.159 54.3807C156.489 54.3807 155.909 54.2607 155.429 54.0407C154.949 53.8107 154.579 53.5007 154.329 53.1007C154.069 52.7107 153.949 52.2607 153.949 51.7707C153.949 51.2607 154.069 50.8107 154.329 50.4307C154.589 50.0507 154.979 49.7407 155.519 49.5307C156.059 49.3107 156.769 49.2007 157.649 49.2007H159.939V50.6607H157.919C157.329 50.6607 156.929 50.7607 156.709 50.9507C156.489 51.1407 156.379 51.3807 156.379 51.6707C156.379 51.9907 156.499 52.2407 156.759 52.4307C157.009 52.6207 157.349 52.7107 157.789 52.7107C158.209 52.7107 158.579 52.6107 158.909 52.4107C159.239 52.2107 159.479 51.9207 159.629 51.5407L160.009 52.6907C159.829 53.2407 159.499 53.6707 159.019 53.9507C158.529 54.2307 157.909 54.3807 157.159 54.3807ZM159.779 54.2507V52.5707L159.619 52.2007V49.1907C159.619 48.6607 159.459 48.2407 159.129 47.9407C158.799 47.6407 158.309 47.4907 157.629 47.4907C157.169 47.4907 156.719 47.5607 156.279 47.7107C155.839 47.8507 155.459 48.0507 155.149 48.2907L154.249 46.5507C154.719 46.2207 155.279 45.9607 155.949 45.7807C156.609 45.6007 157.279 45.5107 157.969 45.5107C159.279 45.5107 160.299 45.8207 161.029 46.4407C161.759 47.0607 162.119 48.0207 162.119 49.3407V54.2507H159.779Z" fill="black"/>
<path d="M169.96 54.4404C169.07 54.4404 168.26 54.3003 167.52 54.0203C166.78 53.7403 166.13 53.3303 165.58 52.8103C165.03 52.2903 164.6 51.6704 164.3 50.9704C164 50.2704 163.84 49.4904 163.84 48.6504C163.84 47.8104 163.99 47.0304 164.3 46.3304C164.61 45.6304 165.03 45.0104 165.59 44.4904C166.14 43.9704 166.8 43.5603 167.54 43.2803C168.29 43.0003 169.11 42.8604 170 42.8604C170.99 42.8604 171.88 43.0304 172.68 43.3604C173.47 43.6904 174.14 44.1704 174.69 44.8004L173.03 46.3404C172.62 45.9104 172.18 45.6004 171.7 45.3904C171.22 45.1804 170.7 45.0804 170.13 45.0804C169.59 45.0804 169.09 45.1704 168.64 45.3404C168.19 45.5104 167.81 45.7604 167.48 46.0804C167.15 46.4004 166.9 46.7804 166.73 47.2204C166.55 47.6604 166.47 48.1404 166.47 48.6804C166.47 49.2004 166.56 49.6804 166.73 50.1204C166.91 50.5604 167.16 50.9404 167.48 51.2604C167.81 51.5904 168.19 51.8304 168.63 52.0004C169.07 52.1704 169.56 52.2604 170.09 52.2604C170.6 52.2604 171.1 52.1804 171.59 52.0104C172.08 51.8404 172.55 51.5603 173.01 51.1703L174.48 53.0404C173.87 53.5004 173.17 53.8503 172.36 54.1003C171.56 54.3203 170.76 54.4404 169.96 54.4404ZM172.12 52.6804V48.4704H174.49V53.0104L172.12 52.6804Z" fill="black"/>
<path d="M180.98 54.38C180 54.38 179.14 54.19 178.4 53.8C177.66 53.41 177.09 52.89 176.68 52.22C176.27 51.55 176.07 50.79 176.07 49.94C176.07 49.08 176.27 48.31 176.67 47.64C177.07 46.97 177.62 46.45 178.31 46.07C179 45.69 179.79 45.5 180.66 45.5C181.5 45.5 182.26 45.68 182.94 46.04C183.62 46.4 184.15 46.91 184.55 47.58C184.94 48.25 185.14 49.04 185.14 49.97C185.14 50.07 185.13 50.18 185.12 50.3C185.11 50.42 185.1 50.54 185.09 50.64H178.1V49.18H183.78L182.82 49.61C182.82 49.16 182.73 48.77 182.55 48.44C182.37 48.11 182.12 47.85 181.8 47.66C181.48 47.47 181.11 47.38 180.68 47.38C180.25 47.38 179.88 47.47 179.55 47.66C179.22 47.85 178.97 48.11 178.79 48.44C178.61 48.78 178.52 49.17 178.52 49.63V50.01C178.52 50.48 178.62 50.89 178.83 51.25C179.04 51.61 179.33 51.88 179.71 52.07C180.09 52.26 180.53 52.35 181.05 52.35C181.51 52.35 181.91 52.28 182.26 52.14C182.61 52 182.92 51.79 183.21 51.52L184.54 52.96C184.15 53.41 183.65 53.75 183.05 53.99C182.45 54.26 181.76 54.38 180.98 54.38Z" fill="black"/>
<path d="M192.039 45.5107C192.719 45.5107 193.329 45.6507 193.869 45.9207C194.409 46.1907 194.829 46.6107 195.139 47.1707C195.449 47.7307 195.599 48.4507 195.599 49.3207V54.2507H193.099V49.7007C193.099 49.0107 192.949 48.4907 192.639 48.1607C192.339 47.8307 191.909 47.6607 191.349 47.6607C190.959 47.6607 190.599 47.7407 190.289 47.9107C189.969 48.0807 189.729 48.3307 189.549 48.6707C189.369 49.0107 189.289 49.4507 189.289 49.9807V54.2407H186.789V45.6307H189.169V48.0107L188.719 47.2907C189.029 46.7107 189.469 46.2707 190.049 45.9607C190.639 45.6707 191.299 45.5107 192.039 45.5107Z" fill="black"/>
<path d="M92.7678 62.8298C92.2378 62.8298 91.4378 62.8298 91.4378 62.8298H74.6178C74.6178 62.8298 73.3378 62.7898 72.8678 63.5098C72.6578 63.8398 71.9878 64.0198 71.5278 64.0198C68.8178 64.0398 57.9878 64.0398 55.2778 64.0198C54.8178 64.0198 54.1478 63.8398 53.9378 63.5098C53.4678 62.7798 52.1878 62.8298 52.1878 62.8298H18.3378C18.3378 62.8298 17.5378 62.8298 17.0078 62.8298C17.0078 63.3598 17.0078 63.7298 17.0078 64.0998C17.0078 66.4598 17.1478 66.5998 19.5478 66.5998C36.2478 66.5998 73.5278 66.5998 90.2278 66.5998C92.6278 66.5998 92.7678 66.4598 92.7678 64.0998C92.7678 63.7298 92.7678 63.3598 92.7678 62.8298Z" stroke="black" stroke-width="1.3" stroke-miterlimit="10" stroke-linecap="round" stroke-linejoin="round"/>
<path d="M25.1197 18.3302H91.4997V15.4002C91.4997 14.5802 90.8297 13.9102 90.0097 13.9102H20.6697C19.8497 13.9102 19.1797 14.5802 19.1797 15.4002V57.1702C19.1797 57.9902 19.8497 58.6602 20.6697 58.6602H23.5297V19.9102C23.5297 19.0302 24.2397 18.3302 25.1197 18.3302Z" fill="url(#paint0_radial_1102_1956)"/>
<path d="M91.9013 18.3301H91.5013V57.1701C91.5013 57.9901 90.8313 58.6601 90.0113 58.6601H23.5312V69.3001C23.5312 70.1801 24.2413 70.8801 25.1113 70.8801H91.8913C92.7713 70.8801 93.4713 70.1701 93.4713 69.3001V19.9101C93.4813 19.0301 92.7713 18.3301 91.9013 18.3301Z" fill="white"/>
<path d="M91.4991 57.1601V18.3301H25.1191C24.2391 18.3301 23.5391 19.0401 23.5391 19.9101V58.6501H90.0191C90.8291 58.6501 91.4991 57.9901 91.4991 57.1601Z" fill="white"/>
<path d="M96.4678 70.1099H29.7578C28.9278 70.1099 28.2578 69.4399 28.2578 68.6099V24.6299C28.2578 23.7999 28.9278 23.1299 29.7578 23.1299H96.4678C97.2978 23.1299 97.9678 23.7999 97.9678 24.6299V68.6099C97.9578 69.4399 97.2978 70.1099 96.4678 70.1099Z" fill="url(#paint1_radial_1102_1956)"/>
<path d="M109.79 76.2703C109.26 76.2703 108.46 76.2703 108.46 76.2703H74.61C74.61 76.2703 73.33 76.2303 72.86 76.9503C72.65 77.2803 71.98 77.4603 71.52 77.4603C68.81 77.4803 57.98 77.4803 55.27 77.4603C54.81 77.4603 54.14 77.2803 53.93 76.9503C53.46 76.2203 52.18 76.2703 52.18 76.2703H18.33C18.33 76.2703 17.53 76.2703 17 76.2703C17 76.8003 17 77.1703 17 77.5403C17 79.9003 17.14 80.0403 19.54 80.0403C36.24 80.0403 90.54 80.0403 107.24 80.0403C109.64 80.0403 109.78 79.9003 109.78 77.5403C109.79 77.1703 109.79 76.8003 109.79 76.2703Z" stroke="black" stroke-width="1.3" stroke-miterlimit="10" stroke-linecap="round" stroke-linejoin="round"/>
<path d="M10.0898 16.5L10.3198 33.24C10.4198 40.13 16.0298 45.66 22.9198 45.66H54.8798" stroke="black" stroke-width="1.3" stroke-linecap="round" stroke-linejoin="round"/>
<path d="M4.83984 20.8798L5.79984 21.7598L10.0998 16.9998L14.5298 21.6298L15.4698 20.7298L10.0698 15.0898L4.83984 20.8798Z" fill="black"/>
<path d="M61.3178 56.5205H55.7578V64.0205H61.3178V56.5205Z" fill="white" stroke="black" stroke-width="1.3" stroke-miterlimit="10" stroke-linecap="round" stroke-linejoin="round"/>
<path d="M71.517 51.5508H65.957V64.0208H71.517V51.5508Z" fill="white" stroke="black" stroke-width="1.3" stroke-miterlimit="10" stroke-linecap="round" stroke-linejoin="round"/>
<path d="M81.7162 44.6006H76.1562V64.0206H81.7162V44.6006Z" fill="white" stroke="black" stroke-width="1.3" stroke-miterlimit="10" stroke-linecap="round" stroke-linejoin="round"/>
<path d="M38.418 31.7402H52.958" stroke="black" stroke-width="1.296" stroke-miterlimit="10" stroke-linecap="round" stroke-linejoin="round"/>
<path d="M38.418 35.4902H52.958" stroke="black" stroke-width="1.296" stroke-miterlimit="10" stroke-linecap="round" stroke-linejoin="round"/>
<path d="M35.1488 32.4704C35.6624 32.4704 36.0788 32.054 36.0788 31.5404C36.0788 31.0267 35.6624 30.6104 35.1488 30.6104C34.6351 30.6104 34.2188 31.0267 34.2188 31.5404C34.2188 32.054 34.6351 32.4704 35.1488 32.4704Z" fill="black"/>
<path d="M35.1488 36.4205C35.6624 36.4205 36.0788 36.0042 36.0788 35.4905C36.0788 34.9769 35.6624 34.5605 35.1488 34.5605C34.6351 34.5605 34.2188 34.9769 34.2188 35.4905C34.2188 36.0042 34.6351 36.4205 35.1488 36.4205Z" fill="black"/>
<path d="M69.3278 39.17L69.0978 22.43C68.9978 15.54 63.3878 10 56.4978 10H31.2578V15.09" stroke="black" stroke-width="1.3" stroke-linecap="round" stroke-linejoin="round"/>
<path d="M74.587 34.7899L73.617 33.9199L69.327 38.6699L64.897 34.0399L63.957 34.9399L69.347 40.5799L74.587 34.7899Z" fill="black"/>
<path d="M36.6097 13.9102H26.4297V17.1702H36.6097V13.9102Z" fill="#FF6500"/>
<path d="M97.418 19.7607V27.5007" stroke="black" stroke-width="1.6" stroke-miterlimit="10" stroke-linecap="round" stroke-linejoin="round"/>
<path d="M97.418 19.7607V27.5007" stroke="black" stroke-width="1.3" stroke-miterlimit="10" stroke-linecap="round" stroke-linejoin="round"/>
<path d="M93.5469 23.6309H101.287" stroke="black" stroke-width="1.3" stroke-miterlimit="10" stroke-linecap="round" stroke-linejoin="round"/>
<path d="M97.4175 31.6104C101.825 31.6104 105.397 28.0376 105.397 23.6304C105.397 19.2232 101.825 15.6504 97.4175 15.6504C93.0103 15.6504 89.4375 19.2232 89.4375 23.6304C89.4375 28.0376 93.0103 31.6104 97.4175 31.6104Z" stroke="black" stroke-width="1.3" stroke-miterlimit="10" stroke-linecap="round" stroke-linejoin="round"/>
</g>
<defs>
<radialGradient id="paint0_radial_1102_1956" cx="0" cy="0" r="1" gradientUnits="userSpaceOnUse" gradientTransform="translate(-23.6422 -20.8041) scale(245.098 245.098)">
<stop offset="0.3482" stop-color="#F37022"/>
<stop offset="0.4212" stop-color="#FF8635"/>
<stop offset="0.5047" stop-color="#FFA56A"/>
<stop offset="0.5894" stop-color="#FFC197"/>
<stop offset="0.6735" stop-color="#FFD7BD"/>
<stop offset="0.7569" stop-color="#FFE9DA"/>
<stop offset="0.8396" stop-color="#FFF5EE"/>
<stop offset="0.921" stop-color="#FFFDFB"/>
<stop offset="1" stop-color="white"/>
</radialGradient>
<radialGradient id="paint1_radial_1102_1956" cx="0" cy="0" r="1" gradientUnits="userSpaceOnUse" gradientTransform="translate(13.6264 2.98058) scale(117.451 117.451)">
<stop offset="0.3506" stop-color="#F37022"/>
<stop offset="0.422" stop-color="#FF8635"/>
<stop offset="0.5053" stop-color="#FFA56A"/>
<stop offset="0.5899" stop-color="#FFC197"/>
<stop offset="0.6739" stop-color="#FFD7BD"/>
<stop offset="0.7573" stop-color="#FFE9DA"/>
<stop offset="0.8398" stop-color="#FFF5EE"/>
<stop offset="0.9212" stop-color="#FFFDFB"/>
<stop offset="1" stop-color="white"/>
</radialGradient>
<clipPath id="clip0_1102_1956">
<rect width="216" height="93" fill="white"/>
</clipPath>
</defs>
</svg>
